<mxfile host="app.diagrams.net" agent="Mozilla/5.0 (Macintosh; Intel Mac OS X 10_15_7) AppleWebKit/605.1.15 (KHTML, like Gecko) Version/18.0.1 Safari/605.1.15" version="24.7.17">
  <diagram name="Page-1" id="ce6xiM8SRkcytHnPkWno">
    <mxGraphModel dx="1381" dy="653" grid="1" gridSize="10" guides="1" tooltips="1" connect="1" arrows="1" fold="1" page="1" pageScale="1" pageWidth="850" pageHeight="1100" math="0" shadow="0">
      <root>
        <mxCell id="0" />
        <mxCell id="1" parent="0" />
        <mxCell id="3oKLYj8sFJzThlAzcCkO-60" value="" style="rounded=0;whiteSpace=wrap;html=1;" vertex="1" parent="1">
          <mxGeometry x="16.28" y="110" width="813.72" height="340" as="geometry" />
        </mxCell>
        <mxCell id="3oKLYj8sFJzThlAzcCkO-9" value="" style="strokeColor=#dddddd;shadow=1;strokeWidth=1;rounded=1;absoluteArcSize=1;arcSize=2;fontStyle=0" vertex="1" parent="1">
          <mxGeometry x="252.5" y="273.25" width="165" height="60" as="geometry" />
        </mxCell>
        <mxCell id="3oKLYj8sFJzThlAzcCkO-10" value="&lt;font color=&quot;#000000&quot;&gt;Storage&lt;/font&gt;&lt;br&gt;Cloud Storage" style="editableCssRules=.*;html=1;fontColor=#999999;shape=image;verticalLabelPosition=middle;verticalAlign=middle;labelPosition=right;align=left;spacingLeft=20;part=1;points=[];imageAspect=0;image=data:image/svg+xml,PHN2ZyB4bWxucz0iaHR0cDovL3d3dy53My5vcmcvMjAwMC9zdmciIHhtbG5zOnY9Imh0dHBzOi8vdmVjdGEuaW8vbmFubyIgd2lkdGg9IjIwIiBoZWlnaHQ9IjE2IiB2aWV3Qm94PSIwIDAgMjAgMTYiPiYjeGE7CTxzdHlsZSB0eXBlPSJ0ZXh0L2NzcyI+JiN4YTsJLnN0MHtmaWxsOiM0Mjg1ZjQ7fSYjeGE7CS5zdDF7ZmlsbDojNjY5ZGY2O30mI3hhOwkuc3Qye2ZpbGw6I2FlY2JmYTt9JiN4YTsJLnN0M3tmaWxsOiNmZmY7fSYjeGE7CTwvc3R5bGU+JiN4YTsJPHBhdGggY2xhc3M9InN0MiIgZD0iTTAgMGgyMHY3SDB6Ii8+JiN4YTsJPHBhdGggY2xhc3M9InN0MSIgZD0iTTE4IDBoMnY3aC0yeiIvPiYjeGE7CTxwYXRoIGNsYXNzPSJzdDAiIGQ9Ik0xOCA3bDItN2gtMnoiLz4mI3hhOwk8cGF0aCBjbGFzcz0ic3QxIiBkPSJNMCAwaDJ2N0gweiIvPiYjeGE7CTxnIGNsYXNzPSJzdDMiPiYjeGE7CQk8cGF0aCBkPSJNNCAzaDZ2MUg0eiIvPiYjeGE7CQk8cmVjdCB4PSIxMyIgeT0iMiIgd2lkdGg9IjMiIGhlaWdodD0iMyIgcng9IjEuNSIvPiYjeGE7CTwvZz4mI3hhOwk8cGF0aCBjbGFzcz0ic3QyIiBkPSJNMCA5aDIwdjdIMHoiLz4mI3hhOwk8cGF0aCBjbGFzcz0ic3QxIiBkPSJNMTggOWgydjdoLTJ6Ii8+JiN4YTsJPHBhdGggY2xhc3M9InN0MCIgZD0iTTE4IDE2bDItN2gtMnoiLz4mI3hhOwk8cGF0aCBjbGFzcz0ic3QxIiBkPSJNMCA5aDJ2N0gweiIvPiYjeGE7CTxnIGNsYXNzPSJzdDMiPiYjeGE7CQk8cGF0aCBkPSJNNCAxMmg2djFINHoiLz4mI3hhOwkJPHJlY3QgeD0iMTMiIHk9IjExIiB3aWR0aD0iMyIgaGVpZ2h0PSIzIiByeD0iMS41Ii8+JiN4YTsJPC9nPiYjeGE7PC9zdmc+;" vertex="1" parent="3oKLYj8sFJzThlAzcCkO-9">
          <mxGeometry width="30" height="24" relative="1" as="geometry">
            <mxPoint x="15" y="18" as="offset" />
          </mxGeometry>
        </mxCell>
        <mxCell id="3oKLYj8sFJzThlAzcCkO-13" value="" style="strokeColor=#dddddd;shadow=1;strokeWidth=1;rounded=1;absoluteArcSize=1;arcSize=2;" vertex="1" parent="1">
          <mxGeometry x="502.5" y="274.88" width="170" height="56.75" as="geometry" />
        </mxCell>
        <mxCell id="3oKLYj8sFJzThlAzcCkO-14" value="&lt;font color=&quot;#000000&quot;&gt;&lt;span style=&quot;caret-color: rgb(0, 0, 0);&quot;&gt;Data Warehouse&lt;/span&gt;&lt;/font&gt;&lt;br&gt;BigQuery" style="editableCssRules=.*;html=1;fontColor=#999999;shape=image;verticalLabelPosition=middle;verticalAlign=middle;labelPosition=right;align=left;spacingLeft=20;part=1;points=[];imageAspect=0;image=data:image/svg+xml,PHN2ZyB4bWxucz0iaHR0cDovL3d3dy53My5vcmcvMjAwMC9zdmciIHhtbG5zOnY9Imh0dHBzOi8vdmVjdGEuaW8vbmFubyIgd2lkdGg9IjIwLjAwMTA0NTIyNzA1MDc4IiBoZWlnaHQ9IjIwLjAwMTA0NTIyNzA1MDc4IiBmaWxsLXJ1bGU9ImV2ZW5vZGQiIHZpZXdCb3g9IjAgMCAyMC4wMDEwNDUyMjcwNTA3OCAyMC4wMDEwNDUyMjcwNTA3OCI+JiN4YTsJPHN0eWxlIHR5cGU9InRleHQvY3NzIj4mI3hhOwkuc3Qwe2ZpbGw6I2FlY2JmYTt9JiN4YTsJLnN0MXtmaWxsOiM2NjlkZjY7fSYjeGE7CS5zdDJ7ZmlsbDojNDI4NWY0O30mI3hhOwk8L3N0eWxlPiYjeGE7CTxwYXRoIGNsYXNzPSJzdDAiIGQ9Ik00LjczIDguODN2Mi42M2E0LjkxIDQuOTEgMCAwIDAgMS43MSAxLjc0VjguODN6Ii8+JiN4YTsJPHBhdGggY2xhc3M9InN0MSIgZD0iTTcuODkgNi40MXY3LjUzQTcuNjIgNy42MiAwIDAgMCA5IDE0YTggOCAwIDAgMCAxIDBWNi40MXoiLz4mI3hhOwk8cGF0aCBjbGFzcz0ic3QwIiBkPSJNMTEuNjQgOS44NnYzLjI5YTUgNSAwIDAgMCAxLjctMS44MlY5Ljg2eiIvPiYjeGE7CTxwYXRoIGNsYXNzPSJzdDIiIGQ9Ik0xNS43NCAxNC4zMmwtMS40MiAxLjQyYS40Mi40MiAwIDAgMCAwIC42bDMuNTQgMy41NGEuNDIuNDIgMCAwIDAgLjU5IDBsMS40My0xLjQzYS40Mi40MiAwIDAgMCAwLS41OWwtMy41NC0zLjU0YS40Mi40MiAwIDAgMC0uNiAwIi8+JiN4YTsJPHBhdGggY2xhc3M9InN0MSIgZD0iTTkgMGE5IDkgMCAxIDAgMCAxOEE5IDkgMCAxIDAgOSAwbTAgMTUuNjlhNi42OCA2LjY4IDAgMCAxIC4wMDctMTMuMzYgNi42OCA2LjY4IDAgMCAxIDQuNzI3IDExLjQwM0E2LjY4IDYuNjggMCAwIDEgOSAxNS42OSIvPiYjeGE7PC9zdmc+;" vertex="1" parent="3oKLYj8sFJzThlAzcCkO-13">
          <mxGeometry width="30" height="30" relative="1" as="geometry">
            <mxPoint x="15" y="15" as="offset" />
          </mxGeometry>
        </mxCell>
        <mxCell id="3oKLYj8sFJzThlAzcCkO-20" value="" style="group" vertex="1" connectable="0" parent="1">
          <mxGeometry x="522.5" y="210" width="110" height="30" as="geometry" />
        </mxCell>
        <mxCell id="3oKLYj8sFJzThlAzcCkO-15" value="" style="shape=image;verticalLabelPosition=bottom;labelBackgroundColor=default;verticalAlign=top;aspect=fixed;imageAspect=0;image=data:image/png,iVBORw0KGgoAAAANSUhEUgAAAEMAAABDCAYAAADHyrhzAAAAAXNSR0IArs4c6QAAAIRlWElmTU0AKgAAAAgABQESAAMAAAABAAEAAAEaAAUAAAABAAAASgEbAAUAAAABAAAAUgEoAAMAAAABAAIAAIdpAAQAAAABAAAAWgAAAAAAAABIAAAAAQAAAEgAAAABAAOgAQADAAAAAQABAACgAgAEAAAAAQAAAEOgAwAEAAAAAQAAAEMAAAAAoVEO5wAAAAlwSFlzAAALEwAACxMBAJqcGAAADExJREFUeAHdHAmQVMX1df//51xAWBQJEUxF8QBNdJMqo2wSUVn2wmgFoyQeJbiwwy5HYiWhjAkRS60QSg7ZBZS4Ro3HalmyuyyHKDFEy4qQKNGKR9SgUUBY2WN2jv/7d977MOvM7MyfPxcL6SqY38fr9/r1636v3+teBilSqO7K8R6P71IpzdvAlN9jnL0FDJqB8efYqk0HUoCckEWyrnY8eNj1YJpzpJDjmaZsEtJ8ure374WRLTuPJBPNkgtkQ9Uvwe25F8IRACm/rGbY1OMCCEcXwwPtqxhjcZVfNjsRvmRdnWZqH6/iHk89hHAc8YnG4cZx9IensHWdf02ois/IhVe/AsL8DpgivjjxW+EAitIFoWiAre98KrFy6HMiUHknd7l/DoZRghKRniBVBeDwO7Zy0y9ijQYkQzZe/TIwsxwMG0bEoEhiPG6UHHMXRMQi1tyxO1Y1VL8yUFMLKl8FnH0NIlEAkoBMiSTEECvYmrbbqakFYQSqblAY/xMOLhP44PoSD0BQX4+zsASZ8sXgBsUtkYGZp4MSbgWXOgX6cUk44EECRaqCk2pMYms63+ZyVvVIxefOjRHUa18YOxNzwa0eEgtqFiYgKnJGzp+xEdToZyDEFGtvyJYRRB+uBCmVF+mTyYbaWZh7PCepoB7ik4brENi/Db0/oDVt3xZfVchvMbdiHvd67kZpLHW0rDMh1zQA3bhMNTkr5072iUwdUr1ukAb6uuor2SoX1LaDwQOs6fmPnYA6aSPrq8ukyluYqky2tJ2TfcFJx7oOoKkXc2TEOU7aO25DBJI6M0QN+JV9cn7VMjlzJi7M3JNcupSLQPWj4HO9zoSY7HiDzAalCZdw0JT3s4HJqm0Q9xPgv4Jx0UPGbVMrs4I91lgEqhbDF3t6OIefDLIZcukwDYypyNeZ3lBdoTJlCwgU8WImMtiE2IESE2BrN7+bCZWcM2OMHKG8yEzzfAijGOeyOWZCEqtHFasHQ2UWCtk4oxeZURKrK9ovaW5SxRHjTtj/+QrW+mrIDpdsQO3ElZVgIDOKlXBZo9W0h6/tKENzEpMMf5vMsaInQtGPS8c0lsG40/rl/JoqO5wMzX6ImgvR4rVrll8d4ybTeQV1clQySMU21nzIhJyAnMmv82ygURVLznYHQ7xq2LrnDqYDNRurdzHJLrM1r9MB25XjRoQysIutbi+nZpY4IEdkNGxOQ8PJDrTwdaiKWUQvKylhB0RD7V37b5zmT4WEr+mYguZ14dcKab7wZ1NjOC1mUMbzoLWpPRyrOK6/uHS4Ke4cM9rbJxfUXIFHH0ti42kwhbmksLsoiQAsYxt2DzA5Aamsu3IEjBhxBIK2+1o8jYX/JtEFfhDC8hL2UNuHMQR9t3z/dP/oUZ9Ze06sMJ9fRQW2ZlPC+Ackg/plG17ohmB4Pjpx8kGTHywdu4VxGgxTPpALZmyUMyehTkYl1LJzP56D9g6WmRzQEcOFmJoMOXjUbt/DUlP7khse1zzNFx3DhbgVxk+MGI3V11r4PerSvJcK7RMK/4g1dbxk9Rn33yBmsPtbQyIcmY62elyzIfokvwma9orJnjUXXf0RhIwzIAcvQwL15Jzq5hcllB3LJKyZ+AZ40NoDUXHR8TA/4vGm/aYZpX923qu0wMcqcHkge9v5A+21qZoOkoyBRj2RWVCC3qwTJZGU5MMIGgdKBTtw+Lp0Q0rLDNay7V8QNn6fDvDkK0epkjDX7giQdpnQYA//uHL4qLHe7oKps6HkoIpSsbrddrxpJYPoLn28swdC/TeApfuHciT54ZZEfzR6QaZebJlhAR8c1gqqsi9TRydsPW66GAR7DdZteysTjbZiEwOWdVUXQInrTQwgxYpOnl/0b7JVzzsaZ2bJwGGzDZv3olPm2bx1fDoWoqIoSqLlYYq7nfbtiBlWZz3hJeAvsKolJpARpGm7LZ9FoZlCzNjb99uCM4O1bH9PhiNvO+3YUTtyBUbkVLb6+W9hOHAxeNBlX8BkSnM527nTsT/TuWQgkbgVLSsYrX4vGCF9Ottw9IzAmjtXYqjyZvAVSvq45NJ8NBt6s2IGhuFeR59kfsJM0C4NjGCoUlvXsTWeWNbU/kcIRm4FN0pIflgQh2JCv344vv9M39kxI8rDuMbzI5NimyExU2vavCUVcax588No+d6BIYxU1c7LOBPgz+70nR0z/JqOB7fcmUGQKt/N1rc/YzcqDGDfIxl8mgcm7F6GYX9J0A5Pcl12zAjqWl4EkrYXZpmsq2xIJiQ+LwI1a5gJX8nLkSPBB6P7h8f3m+k7O2a4TA8YZnYwyRToeP/D71oj51dfn1xFeVFfs4S7eAM6dlJVOy8zUbYk8zkHyDZYoqnnoxHjyJpLSwRBR9AH63U/IQOVP4pvh3HZn3Kvcg9EHWvDePDEb0MowOXExEL7XHazLODX9t1lUUvBJLfrSRmYPpeg8PrRcjS+VlihxCy6SduU/B9MLk5bn6LC8SzL2VUT4BQXut4KeD6hDZW0BmMH8VbhaXkvjeQBkorucZWyja1dyVWp8s4lw8vvg/4CMoKooamguyE6esPz3SNSjc5ajuF7U1WlKnMkGXLBVWeD6n/3pDy1ksnfJ05lG9oOpWJAfFlGyaCLIqD4t5+UjKCRktvBr7ycKkoXzwj6zsgMcWDPLBTjCcmAJ1VeF+dBffW0TDTbLhOJPlAY60EfKF5LOtmTF++FREMevOKYdjD2klHq/s3/BSNoIkOoylXXz+zmNK1kyHnTJoPfv7eY96jsCCtKHV5XgmDfBIwp70vVf3rJcHseyVsquGVDpMI7NGUYv5Vu7+PpkKdkhpxTUY42wMV5HZRURQgZ/QHGbLuGNKqfNHKmsClo9qc00wcx49O6Wh9eQuvM+3wgTEVhygdwykWngslvxLMIWZpJpA1Bls49Ltcrsq5skI9xEDPGamIOMiLldaJsSTclLGZLl5qsedNjXdFPR2D85THrrQeZ4UOZokYpKOMSDolETsJU4XXkkTDM3WVdji8EsXQ2+Hu3Fu+UjcyZfqHLp72AZxGUmHzvF+RBpA9V7aEuL2vZiWrmaEqUDI+yvGCMoP4NFIFzSxJmwP3QljdhVNnp6E+9wfJ1HiPkuP/gqdkcOXx5PN4ByZC3VUyCYd5/Ftrsllw5zB9oGx2PNPYt66eMBOWUu/C5V8OQBLfRMQ3h3q+ydS/+l2iyJAPnj4HX1V5oRhACjHOWisbqjfSdnFjzri/w4mtjtKfvPNxL3sA9JblJcfP0CkLx74ghsSRDLpxxIejmGxiLi5UX9pfsDUUvZ6u27LLrWM6ruA48nqeAnjwcr02Wom56ZCJbv/29o5Ih5atFYwSNnh4Amq6/4DuyH9oxg63b+jT0yOHoQV9uBZOKNDcJNNAm7vL8mcqYXFhbgzt7G3qtE9oUPEN+BVM8zVa2JWyo6fBQ5F96lBX40OaqYizfBLx4mc/QxWUYBZHXFJURJIZu1yeRSO85ThlBhFLkn69umwZ9oRqEP1xUKxb3DtWjlnMQcGYClwqZ8aMul+wm+EQ707N2x7u5dM02bO1A+DEmyDuAbINiJQHnoxeL/6Og/SPVRLTpUh6BA92j2dq2R1lrK24auSeCV9Z23NMf7h1nquqTR9/UFnCLpc1aip1M1ldWgqpuLohDli7SSngbo8q3sKYdf8t9+PaQ0fppZZrq3ogPer9hPRK0b565lq5C9IYns/cqz3KfNXFS2FJnmcHStpBuLcqC4WstsU7bqrAVeqDicsXl3cR0fEWVywNlIgcPj9KU7/Dmzefyszvfj6ADpzzn1z54zwJnaBnrlqOPJyNoHFrT1pfYkSOngiZnW3+0ACOKWSVaHqpisKi4lOAGoPG18oOcK3hiHXh+Yd8veY2kfAYl6nZ8gPcf+8bFr5WNlW68O4KXeClOi2ZCpkMgRdxwDEI3ZqtrO/5AFA4wgzJy0YwW1C43275kRFUpGT8owuFrtAe3vUJwJ1Lqnl0xarjf1YF71yUWQ2jQyYn8KpoqIBKZzZq3PBKrTmAGFRrzpl+v+LxPWMHh+HVITMCzA4tGK6CpczsCpsAS63bof4OLKsb6dNdreIPnDOu5BpFEFKPxJyP65yyqXMAeSvzDKIOYQTA9N11ROqzEezmorEKa5nfR4HmHgdkCalcnu9/++SXBn0hJD1RfqrrVb6KUjMHz1z5cRm+ypraUmu5/5/E/ZxRLNmwAAAAASUVORK5CYII=;" vertex="1" parent="3oKLYj8sFJzThlAzcCkO-20">
          <mxGeometry width="30" height="30" as="geometry" />
        </mxCell>
        <mxCell id="3oKLYj8sFJzThlAzcCkO-19" value="DBT&lt;br&gt;&lt;div&gt;Transformations&lt;/div&gt;" style="text;html=1;align=center;verticalAlign=middle;whiteSpace=wrap;rounded=0;" vertex="1" parent="3oKLYj8sFJzThlAzcCkO-20">
          <mxGeometry x="50" width="60" height="30" as="geometry" />
        </mxCell>
        <mxCell id="3oKLYj8sFJzThlAzcCkO-27" value="" style="shape=ext;double=1;rounded=1;whiteSpace=wrap;html=1;fillColor=#FFB366;strokeColor=#FFB366;" vertex="1" parent="1">
          <mxGeometry x="502.5" y="250" width="170" height="10" as="geometry" />
        </mxCell>
        <mxCell id="3oKLYj8sFJzThlAzcCkO-29" value="" style="shape=ext;double=1;rounded=1;whiteSpace=wrap;html=1;fillColor=#5b4ee6;strokeColor=#5b4ee6;" vertex="1" parent="1">
          <mxGeometry x="250" y="370" width="422.5" height="10" as="geometry" />
        </mxCell>
        <mxCell id="3oKLYj8sFJzThlAzcCkO-31" value="" style="endArrow=classic;html=1;rounded=0;" edge="1" parent="1">
          <mxGeometry width="50" height="50" relative="1" as="geometry">
            <mxPoint x="431.25" y="302.75" as="sourcePoint" />
            <mxPoint x="491.25" y="302.75" as="targetPoint" />
          </mxGeometry>
        </mxCell>
        <mxCell id="3oKLYj8sFJzThlAzcCkO-37" value="" style="group" vertex="1" connectable="0" parent="1">
          <mxGeometry x="40" y="230" width="120.64" height="50" as="geometry" />
        </mxCell>
        <mxCell id="3oKLYj8sFJzThlAzcCkO-35" value="Chicago Data Portal" style="text;html=1;align=center;verticalAlign=middle;whiteSpace=wrap;rounded=0;" vertex="1" parent="3oKLYj8sFJzThlAzcCkO-37">
          <mxGeometry x="50.64" y="9" width="70" height="30" as="geometry" />
        </mxCell>
        <mxCell id="3oKLYj8sFJzThlAzcCkO-36" value="" style="shape=image;verticalLabelPosition=bottom;labelBackgroundColor=default;verticalAlign=top;aspect=fixed;imageAspect=0;image=data:image/png,iVBORw0KGgoAAAANSUhEUgAAAE8AAABOCAYAAABhaEsjAAAAAXNSR0IArs4c6QAAAIRlWElmTU0AKgAAAAgABQESAAMAAAABAAEAAAEaAAUAAAABAAAASgEbAAUAAAABAAAAUgEoAAMAAAABAAIAAIdpAAQAAAABAAAAWgAAAAAAAABIAAAAAQAAAEgAAAABAAOgAQADAAAAAQABAACgAgAEAAAAAQAAAE+gAwAEAAAAAQAAAE4AAAAAzNmiBwAAAAlwSFlzAAALEwAACxMBAJqcGAAAQABJREFUeAHFvAV8lHfWPX5mMpZM3N1DQgiQECBAkOBSKFCsFIcWatSgCnWlBm2htFihQHF3DwQNJBBC3N19LKP/8wxlf7vvyrvdd3f/z4dkhsnYc5/7vffcc8/9ivD/3yECLA8/fdo+sZfCSWHU6Z1VZrmdxWiUWhRiKcxiEcRmi8hsNoikJoPSbNKZdS0dYZ56ddqGxcaHL+bb/OmNHj7y3/pt/eT/1ofhA4sYycliv8AWp3aTvL9OJxmnEBt7ejq1hbs7ajwDXBsR5FYPe5kOUrEZYpEZZr7EYLaBWq9AWZMHyptc0aRyaKjvcCrSdkoy5Db6C7aihpSGhuBGeDRYsG+6+b9lzP+C8SwixKdJPLoXu2m1DhOlIuPSMK/aboMi85EYlo2uPhXwdWiDRGyC0WQDC53RwFuzWWy9bwGdT2SBTGKEDQ0qsTHTmCLUtDsjt84f14qicTU/EoW13tmdRsl+uUK3u6nCpQTJSXqA1v8PHv85403bawN42LopNN247N7t4t/w2PTelzGm200EuDRBp5ehsskT98uDcbssHA+qA1DR7I5OkwQmGo6LFRqDFO0qR1iMEjg6tiHKuxK+zs3wd25BQkghYvxL4e/WAKVCi8oWd5x60Af705KQVeqTYRFJ3m0Rmy5j51jVf8qI/wHjcZ2NvuHs6tw83EGpXTUmPitk8cDDiPUrQU2rG85k9sShu/2QXh6KulYXmLRKuNqpEB2RCyc7NbIqgqDVy61LVQiJC4acRUJYHjZfGoOzmb1gJ++02kJYxtApYOfQjtHd72JyXCqGdr1nNe796kBsvDoZp+7E5HdoFK81tnml4FRCB1/4e5D997jjv9d4SXedXbwqBrrbq7+bMig99Lmhe+GmbMWVB7HYdHk0jt9OhLjTFg4edWjX2MHeVo3lYw9iQeJF2EiNOJ/TAx8fnolSxjaFTI+3Rh3FrMRLMMIEJVfgvB/fhjc9b86Q03hn1yLouaS7BRXhzO1BqK0MgJNvJYb2SMP8xAsY1jMN7ToHrE+ehkMpcakNKqdlDTUxd5Acovv3mA6Q/FveKN4ihdfVXsFehZ+N6p037M3HtsDJvhn7r4zCmrPjkVvSxfoxQ3qm4sd56xHpV4kNZx/DykOzIJUZUN7hTMO8jqo2F3g5t4LRDvH+JZgWfx2f75uLtecfw5dzfoKHRy3igoqh6lSgoigKK6ZsRyyN1UbvHTRpJ45k9sbhy6Nw+MxE+IcW4M1Ju7HssU14Jsm17xdH5qZcz276+r7y8hbUKguR1tvwfz13xqX/49E/y9Ut9Nb8uPDyg98uWB/y3IhdOHlnAKZ8+RF2n50AA5eZs1MrQryq8dOcn6Hmia4++CRmDbwID4cOXKa3jYzMwri+16zL7wGXcwFj4IiYu+hDrzqS0Qc5Dd44lxWH4kYvLBx0nokmDwp6b0JUJrbfGIYQxr15/S/jaPIYhPM1K+b9hHqVPdbumY89twYhkM9dNmkbuodUDyiu939BY2Op0MiXF6FmA2PAv37834w3/FaXrlHZ70wfcuf9bUs+Rotahic++wLrD89AfNdMJPW8g+o2V+gMMkR41mJuQgq+OTAb67c/jyZbLab1uonaDidE+lSB0A77bw5BEQ1Up7bnY9UYRuPcye6JKi7jxO7piA0sQb/gQlQ1eCHUqw49/Mux904ikiKzGUf7Qs2QtuqpLQhxb8CziedhsdPg3IN4HLg8Emfv98a4Xil4Z8IetBo8J3RYzNI6x/fzUPJz279qvn/ReEyFox8flND17pY3Zx6a8OyIPfhy93zM++EdiNUOCOSJvfX4XvSjF2y4OhIyGyMUhBrDIh+gmUa6kNcdLsoOJEY9gMLGwMwrx55zj2Pz8Smw5YnLJAY00Ki9Q4sQzaw6JCYdE3kh3Bgj3Zh139vwGlJoVG+vGuI/OYJcGnC/KgivPbYfydnd8djKHxATko8xMfdwJjsWelknmujR67kSxPweb03fDD9v7YCmdtvIEuWHGSjaWP+vGPBfMB6z6fir40f0TD247vl1gV6ONZj/8efYcmwKBsTcx6aXP4W/dxUyykIJeBtwMb8boYcNVDxJd+K5Cb1u4F5VMPr5laNv9H1r5rWTGmDkCV6v94OTQgeJxIS6dhfkEL4M6pbBGFmBDw89hbJmL9gTlpygl42j1/rTm93tO1BHQ3sx6yrEwBcH5nLJOqDRKEdBrR9SSyJgL9dj2fRfEeBZh+/2zUFKVnfMHX4U4xPSI5ra5DFZ8vdzUbit8o8a8A8az2KDcZeenNz/2s7dr6yyy6nxwuS31kJHCPLJqx/DRaHBZS6PhcPOYDCXXJNOibMPelkNJ4DgDF79hJAivDt9K0KDSnH8bn/8dGUkChnT6lqd4G/fiC7uFejiVok43yLIRTrcLQzF2Yw4NLbbM1HIkVIQhXaTDBLbTmTV+COMnnq1oCtv62BDD790vw8CmHWruQIupg2AL+Pd9zM34ekJh2BDbJlS3AUPiiNx4GoShsbdwEvjzgVVNzkPvWfzYRYNWPJHDPgHjPeBGONEs2YOuLpjz6ufSQ6k9sWT769G74BS/PTBMozsko3P6B1Hrg3HucJIxAaXoGtYIdJzo5FJ3CWA26pWd5xkRmxWO+JWUQSu50RgeOQdJHW5i8SQLIyIzkN4QDsC3RqZddUI8W4joG5GlGc1kiIeIM6/GPFBeUwmt6HRiZFd5YeM6mCcze5F0CLCE72vITS4mFDlEhrbnGDv3Iaf566HnFWJRW2HzSnDkVoWBneuCJ3WEVtOTEZ0cA4v5l7XmibXEWmyzzOQ/8s/bcB/HueNu/7UtAEXduxd9qno10vDMe+rDxHKLLrpjXfh61cNQ70Hlu6fjWQuU1uWUXYM3jue+8paDQz5+kOYmTQ8aRR3eTsCnKsQF1gId6c2qAwuKDWFol4aiBKtP2o0boDSBXqpAzRa1rcwwIVepjSp4G6sgaeoAh6oRqC0DN4ONejQKmjEYFwvjkHvsBIMjc5EXrU/Ogmgl07ZBRH/vvXyCPTlRX72lxfRYRJjcp/r6Eojn6Axz6QmYssb72HB6DN4/selhetPPrYM54Yc/Wc88J/zvNGpY8bF3di1Z/mnkj3XEzH3k68wdEAynhp9FLsJfr/aMw++zJjfPbkJJ+/3RRXjlVKpwj3GPSc7Leq5rMMdGjCHlcaEHjegtLfggaEXTuqm40DnIly2jEOmqQt0Ta0IbymC0s2WSUYNl7Zy0G3Q7OqIdt9wVDtF4b6xN25ohuJWZxLyNV3RyRKuh0chHut6HSqtDX5LGYMdqUMxsEsW7nGJZ5aG4tWpu7A/vR8yWKGsfvo7DOAqkTOuPjf6MIqaPfHlzqcRSq9+a+pB18zigDG5dp+moWhz8f9mwP/d88bcjkyMTD+58/XPQzPKAzDx7e+tQXs4cdoPC9bh+5NT8d2Op6HgUjj2+nuECfWYvGYFChu9oTbKEONThucGHEGIZznu1MbhQvs4pImT0GHrBicfwM7eDPvSDCRoy9HPVAdN9h3cr2yErlOPAC8P+EV2Q1qjDle09hANGAxFQDiLLCmMDL+tKhlaG/gemmb0sVzCUPtT6O72ALVtXthxbwSuXhqHHj1v4eDKFXh201LM7p2CWMKaRRtfRdqtwchcN52EBDB45Vo0aG1x8IM3kBBagtlfvZ11Kb0nl1HivX9kwH/seUmXFMEB1V/+8NzPSUazETNWrEFMcBGWz96IdrIax1huvTR5DyIJJ85dHYozBLJPCKUWC/lT9/rhpWGH8fyAA2gzOGN9yQvYaXwZNV494BYsgZeLFsZOHdwby/GiMQ/TnDU0mAk7jp/DibNnYVCrILFzgAs9z1vfCvn9ZLTeuAi1axjgFQGRSsXwoIG7uwEyLzvkozuSW0ehkjixh30WHo9MgZtLGyo1LkjPjEUkQfripFN46qNvYWYMjCFmFItEyGbSOcWEY2atfPJaEiYPOYfBPbI9CXkCWrs8fxTZ28jO/O3jHxiPkKRX8ZOfTPztvcf7XhFNefdbXiULNr7yCYKJr6CXYA2x2Z3Crnht0j50D8vHrfQE7Lo6gmAVWD5sD0aE3cavRVPwbftKVPv2hU+oGS4ykhwqLcwiGdo72hBTfQ9P+YqQfD8X52/egYODIwxGI7yCQzF24ABIaODr+SUwmQhn8tNR5xIKVdeB5PsskPAxUyfjop5VjIMedt5SFIhjcKZmKEztOizoeQARXpX49sQshBB0j42/iUP0xin9k7H22W/x5t55OMalPJGkwkBiwrzSMFy+3R8rntoMZ5mhy7G7PZuR++tN4MO/ab2/b7y42e5PjTv66xcL17m9uv5VHGad+ty07Zje5ybi312DywSfzsyE0Vym1Q2e6BmVjbJ6H1RVBmP5uI0IcGjGGxmf4LjjQrhF2sKboNjSQaMZSWzwitso5NDqOiEuzECsUg+p0hEtrW0IDQnFkzOfRL/EgZDQKH2DfFBSUYlDydfRptYiyNsDkQP6olliD4OOXsd1J3B+Zr0ZIr6fizMdxd0R1/RDmIm7YVxQKib2OIf9XAkaowKzxh7G4K4ZOEIYk1UegrdYcYwniTCh1y30IDrYdGYSKprc8CFDUm5Rl4FZCvkhFG5icPjr428b74NLkjDb/Dc3Pv/1pNt53fDyLy/D3bcCCjIfE7rdRV6tL64xZlh0tvjiqU1wV6iw6KuP4eFbha+mrWEGVOLF7B9RFj4AQYFqyLUqGHXkJcUMMDSc8GMS2dA7WtEHzZgcG8LAbyL80KF33wTExveGo5MTKgsLrctWo9fjdnYeOvRGTO8RhBXThuK+yRUZDTrY8wzEYv5ycgQc7WFu0/J7Aq5+QEmTA85dC8aQyFw8Tu/6+uA0K5mqZZXz4/nx+JbfvZ0o4FsSFMeYUD4hkdDEbLx+/1z0isjG7BGXpMfSezuE9h55oibt+F8Rq3/TeDKX+dHvPLZ/49ie6fIJn30Kk8QMN6cWZNKrSFPiw6m/QkFPClDoMX7gJRTX+eLorSR8M+NblLV64JXCn2GIDYePSzu9rZOMMI3GdoRwCL/FNhK0avUI0dZgqa8BpdmZuHY3EwP6D8DAIYO5pIGarAx0dVYgtEsY9J2d9O5mjJkyFfH9+iPKSYmoQB9crDehgRfFgXHRwtiJqgLAzwMWWyUsl8/AOfk7tOdl4njxOPSNasK0Psn4/NTj2HJyGtYuXs3Ohw0h10e4T+zZxgv62ugDBNFRuFcehpScGLw1cTdkZnTden30bUv+L4X/c/n+lfGC5/+iCPVq/OrHJet6rzk8FXtuDmW8qLQaQEL8djE/Bm0aB8xJTEYS8dK9yhB8dmIaVs/8lthKhhdyN0HSJ4De2ApjB1kfq7c9NJpguE6zBTpeAhW9KNTSgUGWWuzY+gsOnTqNmOiuSBwwAE1NzUg5dYKe2YLoLl1QVlKCwqZ2hERGoqKqFsWl5RhND3Ryc8MdrRw6dRtkWz4CLh0AAgOBB3eAplqYdXo4FJyEoSYPJ27FYmT/ekztfQc7bwzCq1y+RqMNUlgRxbJu3vTS5yio8cPHx2ZASUcprQ0AO1B49YkDNqfu9gmy7Vu3szl1p0lwgEfH/zCeRaQLak36dPKOz4I9am2mfv8O41oToZbJSovLWYMKBkhliXOjqAtSi1jmXHwM8wcdR4xrCebe+QWWvqFwl9Fwan4ODSc834a/2hnrqgh6aTtI+P82s5QkgRiujUUwFt1DWZsa/QYNQWBwMHLS7qCplBdaKkNzezt2Hz0F19AIhISwmjh5AkXlVYjvEcNKIwwXVDYoqmqE/ekNQDGRRW4m0NoMi7MLRG31MGv0UHbkwdBWi9N1czB/VAmifPLxw7lxmJFwFSOYRB7vcw0lhFZv7lmIZo0STnIdZGR9LmXH4RkSrwEObf4bLwypsOT9cvfPve8vjBe/2Ffq7tK+ds2Cn7p8eWiGtS4N8qiHkT0F4bCQTBHYETlZXqH/kJ7fHVN6XcMzfQ7hycvfoS62P7wdO2DqYNC2efga4XV6WsxDLsZUfzlmBSmwIFiORA8Zuno6ws/YAjsut8RecfS6RGib2ZPQMXF4uMJgMGD9b3uR39iK115fjriePXHg4EGkpFzByOHD0a1bDFIaDchpNUJm7wCxs/tDTw+Jgaiedf6D6wTZcpi1Wji626DaMwEXC/ris0lHkVbmg9288J2shE5nxuPni+NoOHu4kWgQOnZKnqNAhYkYQ5aOPyQ6nNbfyxKZ+Zv6/iEup4fHnxnPImoO7Bj59tj9K7r7VYinb1jGONdqfZaA4oXulZDVHnazQIcWIZwwYPWUtfjy9iycclqC4AgDs54EIISAhc9gnBOWqYod1rE+MqyOVaKPiw3CbYE+zmIM85AgPJikgMQO+ooKSOrLkF1UgmMXk7H7xBlU1TWiqLIajp5ecHF0wo7tv+LQ4UNcmcGYPW8eArhESzRmXKtWwWQjg6JbAixB0cCtE+xvaGBx94NY0wq9yAFVpWq4qu+iIqcDWocIvDP5MjZfHozTOT1QRGJCJCKMUqr5vZm5+cMThcJWh6uF0XhhyCk4SvXKkw8St+se7HxoFFrm/xmPXudhI966af6GoD03B2HfDS4hMhIq9hzEBJWCxwlvKuKVEiimDhb3nzz+K4waCV4r/QkBI2SQFpVBXJkHcXgkQINBr4OOV5FfBdMDFejnJsHdxk58U6DH9rJOZLTocU0jxzllJM5mlaP88inYGTXIrqxF9MChmLmQZVOXSHS0tuDiyeO4nX4PCUOG4uNPPkISMWC9QYwtjTZknithd+xHiF08eFVNEOfdgsHBGzYSBQyqRrQ1t5NBUWHGwHpoitNw9HQsRo2VIJF18LG0eLiRzlKS8RY8TsoQ1UhKS2NQwJMUWmW9L2vxZjw14KJs87Uk+7b0A8cfwb4/rS13o7diWHRmpIOyGesJdJ0YNGvYWxhJTPTmyKOobneyeqGFS1joXCWE5GKAbzY+zF4KZX97yCrLUbdtFYr3bUBhWgaa+DypixOMXHquUrZuXaQEumaU0g1z1Gakt5mxs9KIQ/ntsJWJ4T5lJtynLUX3IF/I+BpdUyNvNfBQypGbkY6c+lYs+PBT/PTLJowbNRJixsPVeWoc5XvYOrlCVp0HyY0DMOVnolLlAWNdNexrLyJU1YDFfVuxapUWr3xshzfetIev4Rhe+zYI0f6NGBadZaW6jHQIAUXVkI2Zm3CFbE8mOUVnuBDL/nx1OBxs1eJR0Q+m204/FmA1BH9xjQmHRdTYmDxr4Zxkx/yKYKSXhCOM5Uwp6e7Zfa9ajdXGN/LilTCapHQoBZ4dfAq3qyJxVT4Dvja1qFz3OXwb89EjmuA5cy9KCGuqBz0JuZMzOonzWg1m8m0S9Ha1IXYTo4bdg/RWM8IcZEiyb8CR2xfRXnQbhSYLxEMnolKrwWcbdsLOyxehj8/BzP7xGDFkIHwUMmtIUPPi3G8zwcCEorBTwOa1H9CY9gDyUz9iYkQ1LKxMztypQ6vJDTPl7rArMkMVZsSISUqsyK/AD7fKkVcfgEWDL+Jy3vOwKAjYRQa0tLuif0gBfOg8R9giDeLqy6wIQRaprDl9Uxy33hwaRIOVC1azGi9+8QZJvcHl9YHh+ZLV58fCQqCoJXgcwsZMX9ayM7e8BHuyJIJb69iUjvYtRaRTGV4sfB+SbjTKhVNY1dcN42ZtsNajtuZOpBUVY8npvVAnzWYPVozVuRrEO5Oid7LjjxltrA76OBrhYi+FvU6CSR7MvtG+QHA0HuvRl4HcDFNrK2zlCshcXOCptIUL14mCjzOYIqXBgPwOtiTZlpQQ+qijesJWa8KgGjV6ykq5HF0xss8kZDXUYV9NFULX2eHaMT1GLzBgwVvOkG5Owa4TT+DlJ2rQI7CcvRN35jgjnOggv7IA+GXOz+gXlsumk6dgJ+xL6493xh0RBbo0vF38wQfX8MEHZqvxGlT29vFdiv3kUj2Os9Zzcmx/SPX4lyKZRfMVUjuejq1cdvySOjvM7JuC8hYPXFRPhJOkGYNJjb/0+jvMbHbWDxJ+9WLEHWCXjf3NLQj2dsN9GuLJmx3o4STBPGbbns4yUu4yFLQb8UauDB6Bo7B4hBlBNgrW0PKH78NS7C8PC8oJgX4s1OBQVSe09FIXmQgdcic45d7E4OyVqL2fge9cp8P/7fcx1ZSG5q/XIpkEgl+GlB4uZRxkUutUwpOcYmtBOyGUO2b0vo6Vh6dbJR5Cv+VUVizyueom9byND8gauTq04kRWL3zw+H6WiwUJ7Q/ivBuBaqvx6nXe40dFnZDXtzuyHgy04jqBNj+f24NvFMcWYbu1iaMzMynY6NHXPw+HiodRTWEHcXUlBkQGwkhR07tvvMkMRXLywQMU3L0DnVsAZHN7Al284aAR4U6zATcaWGqpyTn4SxDFikrFTH6JoaCaLZjdTHZe/EbjvIHxdEJ/Wi6HibuQXEJXPlfQqHxdIsHZBns429vDiSuYzsj+B+DA8k2adx+8QW1PO/gV3sVP53ewMinE4/1scT3TiLZCMcZQaLD7sAibPncnJVaEewmRjHslkLH0tCO+EzCtkDAeX/s2bNlWaG9xg42tCll1fqjh/ZFRmc6H0xKj+LFW44mMZlN875BiNlx8oVIr0ZUN40ZqRDJZOIONG/BN7NmgURI4JgQVQMQ69FTLKDjGALYNUlQWFeClmRuwnokoltjLydkJb3z0KaS6Dnx3cRvuufvCMygYbqwcTDIJCuracb+whOGhk1lcAjsW976EBnr+lBLarM4wYxON6EyvajNYGC8Be+tlZk3MjO9LCCQVcIJFAO9iOIZ0Qb77eFZm2/DaW6k4efkEUr86xEaQAjFRDnDkcxu53O9kS7D1TTukBXTC0+wE1e0CbHLuhhGfK9icUmN0VDpmJ51FHs+7gCSHoGpwJtvdTFnI6hNT2aHzR1xAsdgkNlqThvCVLB5O7UHBbnXYeGUExFyWHz2+G3HUjmSz01/KxkwmGzdCa+8ub/sGF6CBfdX7nb0Q4sKrLrbDpi13MF7cjhs3yd6YTHh92XJU1tZi+fLlCOmfh9dvViClxhnBzrbMaBIo75yC4uBPMNs6QyyjNzPL8R9jl0WAV4RCfF/eaeGPkAFd+SOop4S/2dHVhIrFijlJXUHdRDddCLtJC5DRazlcTj4LL7tWePs7QdYiIXIR4fQl8ga2FvjEGrErXwSXTsInTzEaKxpQeqMeTRon9KHzCHjWn162uywUsUwa/lxxdpS9ZTF0CR5+nZXV0qEnLD5O7Y7lwvd1X3jEwce+foyTTI3yZneYqY17iWVKBFmUnl5VCGcnagy790/0v4I3dz4NF7sOlOuCeOLsNRBSaLgco7t1xZZl7wIBUcjOykJObjbKv69A7x7d0X/YCITeKcXVTi3P2pGInW5Ej5QSGsCWVLLVgx4ajd/ndyP+CQYID/3VIRhReKIAwgU8aWFtq1y7nASqDntrBlCmdxMTRurh7StGZRXw2yEbfPGukUlQxCUr5kWyQU4pQ1F4KL+LG4rzWq0Zdsu1gcR2Kvx2eyB+3L0AYt43suNmFspTipEE+zjb6kU+jo3Pycae3CBh5WLn4d2m0JvluFkajl7h+fhy8k40q5TUwLngTl40LjImeTN1C/3RMJc6XGlMIP1D2zFjqmvq2VyhIWk44SguK0d4ZBQcbW2xYMEiDI6NQqFXTwTPHwkDr5/YJJRuUliYRUXEag+NZ33pH/9FF7RoaUAvXkxVMySXt8Fm6T64mAYgVP8hbJUG1MvsmAj4dR0sGN7LRCpNgqoyWlynh3jaR+StbFGctQ0TJnZY+7wLtz9LxvkMLrKtEEive2bcQaRl98Dr++cgq5aNJdJZ3k5tyooAk43EqLW3j/KusphNYpHQpXe3b8ODqgD2CcTEelV4acIBGBUGpN7oh73sNLmw+1ViCIGcSxZkRiSsOAK9XKGqLsGWfcdw/NwFtGuN1MxZUKn0wVFeYaeGdGuRbuPrDUuL0CTkCRsI9Drb6WJcEFZX+oO241sQpQAdzHvCRRgxB5aMq5AcWwev3iKoHGyhajWhtYMfRVvtPUqY1Sli3LaBI2M40zssxVlQeA5BsTEUrspsxl8zXPm3xPAsPEVyNDz0Ad7Z8SJeJX1v5kp5nTyfgWRGpFeV6EhBolwilVrknlzbesIQMd0zl1TMa3vnY0RsOvqykrhZE8T+anc2lqPQPziPRjWzngyEPUOmDfGWs6cHMs7fweIfPsHeewWI69sfgV2jEWzHBk2gE9/XgjdH9MRuXTVSWt2ZTVk78pyF9xGxL0Ld8V9aTTDKI2P+vfvCK4TnCIGQCceiaoOoqQqWLrFQHt/JpaxCTqgHggIY85iABFbsVpoNsaqZdBcVqDJ7iLW0Ko3vmJSEsjwxmhuymDQa8Dplbbvu9cHq0/GMea3Yd30o3iTb7M77ZjaJdEztJD/8JTp1rLjT0CmT0WgGLs1K8llz+yXDdHg4Tr73FhZQmGNR2yLEtRZD2cqTEr5oDeTPTET0PDGKXyFlW/AIu/MpuaX4df0P2Lh5MyTOnpg8fQaWzJuFBjZtbNtrEW+jgqa+BmJbCZOACA3tehRrGJNkrihrN6O8U4oqiQupoU6UG21RKXZEKbtmwm2F2Q4l9bxv44RyvZT0lRE1UleWemI0mJiEGENFN49ClnMFdXZMchp/iExGbPlNhF8pULVXAv17W5CaTpyqMsOfGdTUaxTMg6bChstdZ+vFi2gm7tRiFguC7qTjW6lO+Hnzq+xt3MW65LF4jTIOBy5jAfBLxAYRCwlbiVkk6cW0L+IFovfroWZlsZZ0dTb5Oj82qRNCC+HBUi2NzOq+O/0El+EF4wuEq8+0qOcK0MQk4ZkgCZ5a+AwJxUbU60X47MuvkZjYH87QwD8iGs5du+HzS1VkWLyhYKJJ6OIMV3sR1NW5kEcG01nIjDRXwXNoX9gUVEPdQlZkwBDoUm9BTo+RDApD24MM2Li6MO84obM4B8ogLzSSDC22cwYi4lF1NgV9QyowcYKZWFOMSWPMSEwwoX8fMaqqzVj1g4QQR4zCO62QPB4DcZeuJBa1PA32VEh+uNm340h6Imb0T8ZMamoiqAecP/Ikdl4Yi5YOB6t8lwvGSuVz1bF9IhJnU4xA00Hk7tqAXTeGYj95rrmP7ScN1ErNhxJ7T0/GjpSReCz2GkGkkN4Ey/GgB5mMLJF49QbFdrM+JBTsFlYaVy6dR1HqVYyNjsa1lBS6vAJ+fn0og2hnY0eP5158GpMUtmj67iu4vvciTKm3QS4K7S+/juSfV8KmLI1Jpiu98BYCu01Fz4WfQb1kHmxGJUIxbBiaX3oOrs/MwBF+h1dSVWyF6pj8RXgsvhFLX1CgvEyBmlJCVMLUHzaI2BpVQNNBjalGx1rbA05UIMBBAbOLO0QkNYTGVFWzG/Y/9yXUpOe1jHHfTP8FG2iLTyf/hlj/Yryw5WVaSkB3VteBxGCj15mIhYSs38yEEeVbhiOvfExcpMX5+70gJRW1bt46ZlTKxVKGMdvYMNUL3B4PIW7xjtErEI2WhyqtvPv3cOf4Lri6umFej67k7xzww8GjuKUNgu/80ZCXk90VjM4rKFQlKqkjHPllWxx9cKMpH5ariQhZUsvYqOLPSkStkUEt24nUyyloquxELzmbOExm1teRwxNyBk6sRXNOI7UsKvQba4+iBxJk5wNfrZWyIydCXb0QZS1wJQErY86XzVkGM1eJyKSEDUOf0JcR6DahbrdnlaEn1rXlKlTwL5svPIbxcbfRL6SQ52rD+MmYabRh/rBoJTLI9YJ0X0KdXCeN99Xibwgy1XCec4qIlPUS3XXs4HM4snQVzuR2J6vMbCUj1qMDCpSo0PoT07u+PXod65b5olQrQV+JBSN6dUeEoyMhD5XrJC3bu/VAiWBxLmkLHd3CGCP818BbEauIDKUFZWOKMH9KM5eHI6GHJzR1Joi4zJztWuAcUY57Qx3g62WBWyfDBXk74SIIycJSwZrMPQ4dRAAyt/vo2ofVkKMUoYFmpDbYYMEsIPlsM5rsoyFzjQRunwTK7sHiF4nOhHlwsDPDWallI0mLJ35ejtWz2NQnHf/F6YlIWfU8CsoD8fTWF6AgXBPKN448lBvlilSJyKDvrOtwtGo3pFzzN1lVjOxxG0P7J1slYU7+pXiHXaTM8mBkl4XBY5QKofISXKWe0pn0kpmlmppd7sbosQg9/gtGawoRGzsIEYQKFSoNxDREF8IJ78ubsDUwEg8c5RCYQZ639RAMyESPCC6bohR7vFfqhqIKtiU1BKhE/C6uQH2LDWqqlXiKkMh7ODOo4O7CIUQbGZdeUE9CDEdoywrwygLWr5NtsWS+HsuXdeL7dXIuXREG9JPgaKoGBq4WaUsZ68BcJq8UtLkOJ+FaIbD1MPBL9QwswdsEyGpS8ha2UD8+OYWY0A5Ssi2hjIEykif1akcRQa5ZIrE1qHJrApg9LXTNAnx6fBrlqqX4efaPiFy5Hh5UYtZSaP3KzsXQshmsp04kUF4ON66X7m4y2GgNGMwiPjCGNE/eWOhTTkDNsKBSq+DG2lOoV7VaUuA5N/FUwzUUDRmH2lQp1IQwjw5CTHiSfRllHIyhFHzvOb4Nty68jhajI84dIXU1fCJWvT8P8Qe2w7G6HWb/R5bncnQm8xISCxVpsRcnV+FusRM++lyEH7/SYPYiJYlTETZsEqG0xgkSTS3EbHxbQxaJBSjtYLyfiZCuFWjWOyGnsBs2LPoej/dPZgvAl+1RW5STkqqiNPhrqkqVbIAJHcScWj+Rr4vOIFHbNmroeWYpo19XDomkUD4x4/uV8GdZ9iED5YCwHFS2uWFw5AOcSx2MinZ3dFHmo6PMgvABMrjpxejtQ6VS+l2cv3yQXTEJvHXtUNk7o1HqBo1YAp17CAkBO2TZeKOhyQh1J6USvwddwYACdFEx8ch8bBCaYI9eeQoomcXruIwK0vV4ZkJ/TJw9FKVXdrHt2QGXP7nt7xfAIxIm5xwMH12DXi1kQO5ZUBy/HGty9OgSsBUeLhRW5tgSskghtrNjyCB2IdlK7EQDqgl6qdezyFnXK7CbYvT40Bx8RwW+D+n3Hn5lZIBKrQREgAvZbeaAujZHtR3XrwSBFer6kh65bVp5N0FlCcr0I6glXkcysKtfKc5Swsqwg5+f+Q5f8sUHMxLwdK9j6CKuRpCtH2Rs9lwp78RaVQQ8Fn1t7Xg12CgRxLoxBw6w44snRrqhnueZmmuGT30TY8bDFqTVcMIvLj+R0KYkhNE2dRLXUasSZEJ8iD2OB6nZ8crDVI2GtBgDNn/+dAjoV01PpLLK25OkaqQ9XFke2jrxuyyfiYbzpZDb/obJI1qoQVGgU8/YzveB3kBcpoDRIxgSNyXC7UtxLS8UJsa0TGr7Zm1chvvVASyC6KU8OJLF18rRd8gZaPQyS3mry/rqreM6JQIj2jDl/JnSJu9uCcGFpDLcsWbZ+xhIfOf47G4Yhd4FWZS6pZ/h7fEH0fezj+E1RA933MQrV6ZAKVbTuBYoHdwwYPQ4lDHHkP228nIziT0HsxtYTHokTGHGVPIARfUitAhVhnXl/U4I0JMsjEVixq8mnQgyihYNTXqUlyiQ2FeJM8mHsPmrQCxhcpE6ONALHi15FnpCmZd3lOyJGe2lMuSmObIkM0B64CTF5d5I0QTg+aRm+HiYyBnS8J3MdGwHiDvqKRq3QdygenjZt1CUOYrEqsHK5QnzIH7OLcSErMZ5bkLLNb8qiIxSoTA8KGpoo+SUBy8d38tszEgrD2czuMpK/AnN7dI6b3gRzQfSCxOYbcfG3aI4JgGFBT2gZ2Gf5HwSHoRKK/o4MDlI4GkxQFnZDml5C7qTJurW2YLGhnZKbFkqNajQwUJcqINVjJUycmuC7QiQrDHf+h14QmTpqE+5glvXkpFbaAsNqaN+fVwQ46vGxtXf4NK1W1AwgwsvsgionrdiiRyy3l6ocXLAqSu8b+cCH7dO2B1YCT/GzcO7qxl2HDCUpIDJVgpNN08YY9xg7urMGtwPk8LSrISHMOOx6dmvWYrtQ1cWBQJj3sLKSUtWRehb2wojXj4VuF0eQkZAWil8ZwHxwdO76diZ7O76ZweflYVxfuKlX5/FqTffQfL3c1HCZBJAri+F/ctPj0ynwr0Rp3LjMD74On6+VYMsrQ/rDbXVKAer9FbSshs7ZUae3F02aGyZ2sd6sx5U2KCnmw0GUkJ2r9gDjTWU4jJoOzowcNMI9vTcwqpq3D63ipXSfQQEOfB9NbhyS4GwUGI9YyW2ZrQiSmNAGD3V3o7qUcbTspISdHixEdw9BKnGekwKLOByF+O4SxBE4XZorbfDtkI1uujZF+Z30gwNIH4zQ1OoZbIZiHGJN3EuJxBlNT7k7aIxsc9VLCQheo9NsIOpA3CdOaCaytYY5gNf6v3IrrfYy6tzdLSbNYCE9xptKmj2W/hC0jknI4WJv12YgAsk/gx6WxRwGQvS/cpmD6x75nuqhx7gvcOzqb87gewKW+xuIf3jY8JgNrHjXaXWH4EUcGE7sYczl4WzBEH8v3BksG6VEVl2JR67eTUFhpwH6ElDKAZxJq2xGSVnz+AaO2tZNTpWB3qCUTEJSjOvOtkOpT38Wh3QZ8QEuAX4QZGWjmyKfL5JPo3y2kqiBTk6q3WIc1Ez8BuRmk2DUzNjN9QD90rl6O/WCi+DCpXZVBcUVaAm1QUTx/niqUGZFP+MhT2z6A6qpcD6NjHuLsoLIjBv1HFEeTTg17MTsZDxLpF03TtHZ16uCn5qI5I/JGTmUZN2zNIe3KAb3CVrTL+QPPEPN5O4ZGzRSN4+xLccT488hSHh2Ui5kYTB3dI4sRhBT5NiRsh5bL47CwHd7REh0cNVLkEhO1p2jGmCvYQOV3qLkZWDEZcpizhY2okzlXpUePpDbm+Hu/t2opg9EG1wCMrv3WavtgFdZr2BzswWNGUIZOUMtGfSQ7XuGDDwWQxoZnxzJH5k0jhw9BhW3jqBLHEbPBiB5FQOGNhTiQ4ysIWpRW49G95eSthn1KPtchveXKjhYIsRxw4xX9RyWUofw+YV+WSHA1iSDsRPi79FPAU/C4efwsU7CZj12Ze4XBEKNseQyXi3ds5G5Nf5CBqXp80/h5YKdnvoEvgQzv0mFqq1doufGXbCbs+tIRDi3qFXP2S5oqUhmXUIGN/85gOM4hXo4V2Nt3Y8hw+nbEVhuQLFSITB0YwzZRp0EOyO9JKhnCdzqo7ew2Cr4mPenDCZRJ1KPJduG1uEegq07ftTikvl+4l7JdDzyndGhpErJGShzi4s0A0+rgq4OnpAGzQQ6R7dcJiSjG2X9mFH2nkcbmlEIzl5l97k5WLJE0Y7oIFdulbKzpR5jahtEUMT7gYRr2KH1A6TBpMAYNftTJUYtZFJmDQxAM8Mv45FWxYxFps5TdmCnhzHsthrOcLagbDoDGRy3OHsnYHoFpGDDybvwsdHn9BktQd9Yby/wyq5sMY8wYqtwRmqizk9HrSrnYa8Ovw4luxcgrcPzMEhUtLCQMrl95fhu68XQks+6wrLNCeqCbbfHY5VA9ci7uhUtDmFwJMpPYxk4z0KbwqYGQIF4pENCsFwYVQhckUi0E6CWCcLfi3rQKkyCCMWLcZAPu5H6FVEkvluuRZ+nraI0Zag+uZVeM0aQBAchhv7s1BKakvtowcnC+Cr4fQ3+7369EaYPRVEH9TOODay2dMOsdKGDR4dWpq00I0OZGwTCNFauEgZqZpFkPRIwldzDmL7pQQ4Sjqx5uk1xG4ueHPfPFYzLhgZexvPj6Mmhkli9texWNL/Mss1hflsduwu3fbRpYK9hON3qC7ctYjkEy6O+XrWlqOLhpyRuC/dCQ1bcB9O34qZQy7g0p2+SGccNLFgHsarInCYS5lYri1fxsnE3ni7Zge6DiWUaCNXRhzCcGRt4lh5P36KwB4L9wXi2IkGlTHW1WiM8FBIMDnYlpwmi33CLzkJ1g4CZht6TB0fS2dSda1shYo9irziYxBTvCNrYF2soraE9auIMVGa1UTyQM5CQ4Z+oSo0KBxw+5oFHWRAWnv6wM9Gi7e7liM1pQo/XpiBj7+1x5zhNxH73mc4/TIHDlmKbWcFcaEyGJEeNQh2a8b5vGj4sSTLY+gq/3YB9t4crF72yzO9Ok6OIOXw8OCpPDpElhifwvObUoZfkMhNELxPmO2PDSjBzssj8fLe+WyGyDE69g7xjwkh/hWY1zeZrPMLWDrkOMaZ1iMnU4J29m07eEICkhC6Yp0sw4T2IcWbmMBKZBDFPi0s7GX8v4JEYg61K0fLNbhbpyVk0EFh6cTRkg5sz2ARTjmGsUqDi8f3IKcqhVQW+TjGNx0bvvp4D5gCHGCMdqUayhbSPq4o7hWEbXVBOKLyR9NAZtse/NuDVvSqq0Tu/Xr8eG4gkuZ2wfLpF/DeztloLQmj5sWAMmqqD5ExrisjUCbxse2Z1eym5eM2w9ezpOAdHFVYf2VkkULZXP3IWsLt7zHv4UNC4mjya6rs4tIwY+7wU9L11Kydvj2AghcnfDH3Z6rEt4CJEv0++hpxlJc9zxH2Jd9xAoiZ7NMRa3E0JQ5ldtFw9ySO6zRY61oHKcs3Zl079msz2abkhBgCmVDinQTphgV1NGQwl1kofwRpv4Lu2W4kkGaVYi5Ig27LKrRWn0VnEAv8KqGWJV/ooeT70/sE4/H9NS5yNHV1JfC2gYJ/l3iyyufSJ3MGpbYTtbYGnM2NQmSfMTj/5RFsO52Ik7f6o3/MPZIfwVg49DQiuuRztIEXgT2M2RQ9MoQhuzoQe5Z/gLNp/UzrLk14V3VwXCqYHx4df2E84Q/mJxdWVuS4hSwedSZORkB7+NwEvDN7A7FeIz7Y+iK6+pYiqVcqxzc1SM7tiTxCmQuc/eoZUYTFsb+y4dwf5cpQOLiZ2Zw2o7uzFHb0sEZ2YlTUjCiUCnj4OMDdRYY4WzGiFCIW5Yx3zNIVTDIaoxnh/FsuvfwqhYyao5/Aj8nI0T+cWZmgNYKjBvXtMFY0Q+OpRIcTWwK+1P21mxDdSsaD9/WEKtJqDeTZVLUSBxaKo+AbPB4HPzmBjGI3rNg5F6vIUS6etB8lnIz8gVCkX1gB26vJmM1h6CtUSry97QUsm/IrHuubioUbXr4mEbW90Xovjpfj/x3/w3j8Q/I2c6P7a0VO8s5Zr03eq9iX3hf3iqKsw8B3cmPQypjk7dqMWqomHRkTnh1zBD6cOPzi+FMY2CMTM8P34+L1OJTLwhASICJNT4kFh+wMLOMWHtmGxdcPQdGpwc0OepivD3sjMmqA5ciyyJDK2jNDxx6FgZQUcaJvDz9uwOAA+/wGeLcwFJALVNFwYmpZjDHsU0gtGMx68LnMDqxIbUAFs/PZICWkGc1wKGUNTXFSRVsEIlwHYuu7yWRy9Fi8cQlWztxG3NiBTze/hHfG70MnKfgNyaNQXB6Cu/S2VQdnW2d7D72zEutPTNRvvTJqacveibl/7nWCCf/aeHzQ5Li0JUvlFT6h7624BOrzvtmzgP6vIhFZjUsP4lg7OmLRiJO8dcZ9GlQYcXemivKVra9QmZSKZ6K34W5aMK62xKDOyYbSNCMSpe3of+U8uu/dAO+ca/DMy8IDCsDL2jTQVLahtVZFoKymRENPOovqqU4TfPwpa+06iOKTdtSmnIeuqA3hek/E+3JE1MUXvW8X4bmCWjxeywEWJp/kYHsQUkIkV6EtzBZ1NomU4vbB5jcvoIkQaAETBBivP5i7ETnlYdbv3pswpBu9bnC3e7hLFLGJzR4VJcPbVwi6G+C5X57d0exUtYZ7EnAd/uXxN42Hmp8tHUEN5dX1HlPemb7VroXEgDBHq6Re15v83sZZG5BHAfQLm1/GaQLn7qSoZ/a7jE92zcelwhjEhhfhlT4bUJ0vQkZTHzLPEoy7the9rxxnr5xSCO8O+NbVIqb2JoKaL6BLyQX0zTiPITkXMTw/GUPzUpBQmIKga8noXpyN4QoVIjSUtUlbMY4Jop+sDbGFeeiTzaqBQVgXSqKhSYKeNSomoRZc8wlAnWEIprA82zT7KDk5OT7bN5UTlw83g7jORtb42FS8vmg9ddexePmLz7k1SQ4i/Mtw+NoIPM3+zfJpO9lOXaa9lhM/D3sm1f2l2R7+j/nw7x0WkXjSxfe/m739/cWj92LQ6+uRVhiF2WMPYeuCHxH28i8oftALQ4efxOr56zj9OBLF9MQhMRn4+dhUTIu7xj1R9mNP5jisz30aMpUzksAxJf1d9M2/AHlGA1yiG6GM4eczvoN9a+tRyiXOZhFYn6rLxYQs/LM/WV0OKIs8jdxahHVzLWc7bDphyHCBpUkG27BOPKgz4riNGw559ITaMxRPDyrA1Ni7OHyjPz7YPRcrntiOyaNP4uytgfiC097O7BK+yCTYPyYdm3csxkHOCEtYDHhTKXBh1YvYeX40lvz69HIcHfktfZnY4a+Pv+151udRrhD9dN7twpCh/SMLfaYwkB68NBoaeuF4yk67+laxFCrGS5N2U1kZg4v347GSV0zQ9g3iLO2OK49xRiMKU3qfxKTgU6iyccB2Byrsfafirn8sarv3IvfOMVC1D0spD9QZlcSGStayStR3SPh/whSyNo4CJUTA28llrGvvREuxBGo2K4y2rChaDBw56MB+fqf3g/pjDyeOBsSI8fW4K2xkVeH78yNx6GailRVO6J6Bsdy8RuD8B3RPJ+i1x5qjM+BPan1s/0v4hV0yFfs1+z54HTUqb7y8feGFNqPT68gOYTr728c/8LzfXzA8bVBC1P3je9/+0PEeGyFT3lmNCf1S8D4nH1u0djTSSFzliNXplW+juTQYkz5dhf2fP0+4IcfIt39AuHcNZnBOY3bCaVRrKN8vnoy9LROhcY7CyGALaaE6OHY2YwRnN3IrdOjoUCPGrEKIRUfiUY9cVitssEDq6wl1QSbaDm5iG5MyXRKxNeIQqJxDofGxYNAIPecqihAgb8GBNEpD2LyJjbqP52fs4FjrJFxgeLnwxgqcYz96QFg+4nul4TBVsGvYk5Wx8XWXFNyOFSutI6Nzv3wn+2JZxHwcHH7n73mdYJ0/lWd/27Z89EJ8yi3J7YXPr122Y/87KxS/MAPN+fgLFFQFQkLmtYOuvnHRGqrHJajW2uLVJ7cwC1lwNas7eUIbdCG0KWzxwXO7lpNcSMecqO1YGLEDN+rikVKeiEJdH4hsu0JPbHbXjc06kqeGUCCYVVUNWaMtmezRsaqyJSdb7zIZpmz2LFJPwtnbHvGDlHhsSBP6R5TDT0aJW04UNmcOh5GrrIYkuT9xWxwJzG+nbkePlOFYzS2Vlk7fCV0j90TYPY+tStLrfO71zDj8+vFLVIKmYdK61y0X0/q8iiu9b/9dm/z+h//d8x69w6jUWVMHndmx7/XPse3CMMz/ZBWnZDRYzSbxOO5SkbRiHR4fdQxfPr0Oy9a8iV2nnsBUjiitJsF4jYBzzvdvs9BvocKoiRNCbRjd7QYNWw693o5Ke18UaUJQpg1Gg5FEAHu5NnIyxqSZ2onZZOYO2Fuaua1XG4IV5fARFSKUDXo7e5N18CSDRO6VrCgk0wjdaZDvl37FEQI7vMLycQyz6KfTfsFPBPzLfnoD2WvnUCrmimnfrWRpJ0Uthw9/eWEV5o84jdnfrDDvzIlfgB3jt/8jj3tkkn/eeMJ0x9gr02cPObd+24trXA7e6Y1F37yPQF/OQBCV61iFHHz9XaQz28785AvMYWJhpuZwiRkpPKlPjk3Dyid+424T3I0iJ4b7AgSiusmV4u46dPMr4g5l5cRjzda+aDvxnsbaXBfDgVjOjhybVGwgG2MHHUU6ha3BuFsSRLbbBXk13lbVvp4JwM1exT6vCWsJ6mcMvIANBPglNb7oHlCMCT2p+vzhbSvFFkdo8iqnvVvUdtj51ko8NZjgmBd8Z0rSApxM2vbPGE4w4B8w3u/2HpcyZvbgs9+vXbw54jZHkJ787BM00RBLpm3DggGXMGPdW5SnZuGjp39ACkugRvJhaoqDlu9YgvE97uDzBesQxn1X9hCUZlLvFsDNBptVTpw0DEEVGQ17hZpcoIHbvonhybCgYO0pMDmtHJMvI1UuDNXYUvZfwJbg4sSLbAfqcYJZX0iIHRTn1JAd6cWO17aFP1Dh7okIzgNnkI8ThNr+9NZFG1+jFCMUzsyqPy7/BAMJsxatf1m150bi01DZHEDy0L+oIh552d+6/QfZ9m89nY8V/FJ4X7YqtajeNXxMn8zgRSMPc2TUC3tTRiCF+z4lUFX0ybSt3BMvgmqkFgT5VeI3Ft05Zaw4uEzHExp8uetp3LyTiOfZTA9ke8+F0o5AZj1hS6SZ/a5iYsI1NGicsOs2X1cXiGzOS9RyPuL5UScg4wYzvmzOC1u+CVvHjWDImEnq/Nkh56xjUKVkvAurgtk2bLHuRZVaFo7hzLIH7iZg09URuMU5s7ioB9ixcgWrDAPmrXmt81jagJk4MfQQSkNYPP/zxx83nvDeBZursvWf386rCPQJ8Gvu+v7MjWzdWHAgdSAb1TLcpcJ0K3cSCwkoRRzF4Z9zvxVBmvXCyBPcEk6NxbsXkbOrwfzB57HtxlC89NszZDa8MZNGE2KZsNnMVIoLtUxA9+g1eta5PXwr8N7MrWxZsenDxtSSQRfoUcEI42Ch0F9pZ8NG2GcqhVpCDXvHt+hdM3rfYCKT4VMKlfZeHYZ8qiHen0Ph+atfILWwN5b/vLjqalavGTidePqfXap/btp/zXjCO5RvaigVf3TrQaOHrKo5vM97k7dgwsCLuJHdE+epqNIx1oX7VFKKYc9GciKbxxVYOX4/N27oy8mcRIwgc/E4ZR292UyP50kLovEIGrScpdFLu55BLI0V7lmLSwXdKP8yMSZSfka9tJZh4BpHVQMYH48RWwqawQ7GQmHIZEb8TQrQ3VDOH8GFBBnsBWLQ5JRh6BGRh/0r37COiX5waCnWHhl1KDM/cjEu9Lv+P2vWPzfQP7r/Z3zeP3ra3/nb9V5leXlR720+N/C14avWol3tgksfvYztxHyB7DZ9c2AWlm97Ho4swvtRHMm2K/c3SSCx0ICk8BzsujIK3ZdtsW70IKhShXmPJtL9BnbuO5gFBVGRisYPc2nk9nBp5NrE1mzqyDKxosWV9JXRutHW5LhbVvVSKr2tNyeWlDRyB2PjxRuDUcW4t/Xt93Bt1XMWndEJwz//GlvOJCwpyItcgksJGX/nzP6ph/91z3v09iWbtLqA2XcrGt0uXM6M65nfEO3z5MAz1DLvoTCmDukVwZzODkQBleTXiyNZTfjAmwPQSxi/4rs9YDtQxP1CqaKikSb05J4q+dE0nB1WMB4KA9En6VHC8ydyCSaw/ozyL8FlUkbtGgcs56YymUJnn4PPwrLdkTqI+4bGoZo6E2F27tPZm7COu1j4uLRi5f6XRGuOjD+dURb+lKbU9TRuxnc8OoV/9faPZ9u/+0mEMqOue3CjwXFuDurPpgxM9Xl+6D4KhVqIwXpacdYReh1YFsnpOYOZWKZwzP7xbuncC6oHVp+ZjJUTdxGX3aW0wRZZ1f54YftilFMn48ekomEmDXBtwvKRx7CHwvJ7ldzyjXDoNDPtyWtDrWJEG1sOojA5PM+26NAe6dyzygnrL07D3ssJ9U0a5cstKqczODGo5e+ewh/8w7/ReL9/8jS2M00pns7S9qmOUt3bY/pl+iwZ9HDD1VqOY17J64EjFEyfIUvTQq+x49ITeDehX9rNr5wbCT4g6hDhKDO3MLLppiTxyQTQzmVsMtlQR0hJG5OAVQZCg/rwNYlsUE1kghlK+syXGT6jOgQ/p0zEqdvdG9q1tjL6/jYAAAG4SURBVB+1tEoP4MxoMiOiP5RN/zdb/vuN9+gTaUQH3XEXiUI8ijKoZV2Da3pN630FY2NSEeRaDy1PvLLJi+OYQdz+iICXklZhyqiwwYdiIQnnWzmyRZWmMOkjDEgriOc8aGRvTp938apC7yDuksaE5O9ea50Zq+Ag4cnMPtzJcQi5Ou/77KCsMqoNZzsU41uwT/RXXNyjr/l/uf3PGe/RtxJ25b51SurhZgjQ6aXTqQN8MsyrpvugqDzu/ZlFXUgF8WCrtakkeJbQgBGku4+0PGxrWBtRgmJfmDgXNpo2UAYsbPaVWxto3WQ6Jb8LCut9sg1G+T5u97a7qUZWiqQkPT7493rao1N6dPufN96jTxJuBUNWp9n4Giq921TSQXqjdJBCbuzu4dAW4aZUeQay5RfMikApFcoxGouGEgbzDFy2j7Y3L6PAsrHDvqFR7Vyo6xTfZ3P+ArfQvFaR0d6ACYtJE9NN2Uf984/9T93/7xrvL8+Cn/3wHLtN2yet4GCjFLa2WrPCk42xENhYXK0NYLGlysZsKhdJJDqlzKwz6lUUjUGVtW8au7zCYT2F/4qxHn7e//v9/wGRu6j5TRPsEQAAAABJRU5ErkJggg==;" vertex="1" parent="3oKLYj8sFJzThlAzcCkO-37">
          <mxGeometry width="50.64" height="50" as="geometry" />
        </mxCell>
        <mxCell id="3oKLYj8sFJzThlAzcCkO-46" value="" style="group" vertex="1" connectable="0" parent="1">
          <mxGeometry x="16.28" y="333.25" width="144.36" height="65" as="geometry" />
        </mxCell>
        <mxCell id="3oKLYj8sFJzThlAzcCkO-42" value="&lt;span style=&quot;font-weight: normal;&quot;&gt;Neighborhood and Ward Geospatial Data&amp;nbsp;&lt;/span&gt;" style="text;html=1;align=center;verticalAlign=middle;whiteSpace=wrap;rounded=0;fontStyle=1" vertex="1" parent="3oKLYj8sFJzThlAzcCkO-46">
          <mxGeometry x="74.36" y="8.310000000000002" width="70" height="48.37" as="geometry" />
        </mxCell>
        <mxCell id="3oKLYj8sFJzThlAzcCkO-45" value="" style="shape=image;verticalLabelPosition=bottom;labelBackgroundColor=default;verticalAlign=top;aspect=fixed;imageAspect=0;image=data:image/png,iVBORw0KGgoAAAANSUhEUgAAAQAAAAEACAYAAABccqhmAAAAAXNSR0IArs4c6QAAAIRlWElmTU0AKgAAAAgABQESAAMAAAABAAEAAAEaAAUAAAABAAAASgEbAAUAAAABAAAAUgEoAAMAAAABAAIAAIdpAAQAAAABAAAAWgAAAAAAAABIAAAAAQAAAEgAAAABAAOgAQADAAAAAQABAACgAgAEAAAAAQAAAQCgAwAEAAAAAQAAAQAAAAAAlNB3SgAAAAlwSFlzAAALEwAACxMBAJqcGAAAKW9JREFUeAHtXQvcVlPW3+/bGzHlMi6ZkEtuRSKkVOSuDOUSZuhDNYOGhi4mlEopKsJ8bjMJxSAJ+YaQRFeZIqXojtxDMxpjRupb/zOdx37Pe85z7ufZ533/6/d7fs+57L322v999tq3tddWikQEiAARIAJEgAgQASJABIgAESACRIAIEAEiQASIABEgAkSACBABIkAEiAARIAJEgAgQASJABIgAESACRIAIEAEiQASIABEgAkSACBABIkAEiEAuECjLhZQZCTln1qxBGSXFZAxCoO52273UtGnT2QaJlJkoVAAa1HNnz96s3fKyhiBQr1699Vtvs82Y/fbbr28NyXIhm+WFK14QgZqLwA61Kyr6rFmxYkRNg4AKoKaVOPPriUBZRUXf1atXD/MMUA1fUAFUw0JllqIjUF5Wdt2qVauGROeQr5hUAPkqL0qbAQK1ysv7r165cnAGSZU8CSqAkhcBBTARgfJatW5cuXz5QBNlS1ImKoAk0SSvaoVARe3ag1asWNG/WmXKkRkqAAcgvCUCOgKyOjBk9fLl1+nPqtM1FUB1Kk3mJRUEymvXHrZ6xYprU2FeYqZUACUuACafDwTKKypuldWB3vmQNriUVADBsWLIGo6ArA6MWrly5TXVCYa4psA0na1OX0OO8yJm3JGlF1NgVVd+QWnTjz9evU+jRncGDW9yOPYATC4dymYkAmXl5XfIcOBKI4ULKRQVQEjAGJwIlJWVKbEY/KMMB67IOxpUAHkvQcpfEgS2KIG7xU7gspIIkFCiVAAJAUk2NQ+B8vLyMpkYvHfVihW/yWvuqQDyWnKU2wgEoARkTuB+GQ50NUKgkEJQAYQEjMGJgBMBKAFRA2NkOHCx853p91QAppcQ5csFAluGAw/K6kCXXAi8RUgqgDyVFmU1GgFrOKDUw7KL8EKjBdWEowLQwOAlEYiLgDUcqFVrvMwJ/CouryziUwFkgTLTqFEIbJkTeHTV8uXnmZ5xKgDTS4jy5RIBKAFVXv64zAmca3IGqABMLh3KlmsEatWqVaY2b54g3obPMjUjVACmlgzlqhYIQAlsLi+fKN6GO5qYISoAE0uFMlUrBGQ4UL5506ZJMhw4w7SMUQGYViKUp1oiID2BchkOPLNs2bLTTcogFYBJpUFZqjUCUAIVtWpNljmB9qZktMIUQY477jh1/vnnqyOOOELtu+++aueddy6ItmTJEvXZZ5+pl19+Wd1yyy2F53m9uOyyy1SbNm0s8WfOnKnuv/9+z6z069dPnXzyyapRo0Zqr732KoT74IMPlKw1R8Zk+PDhqkWLFp58J0yYUFQuWxDw2WOPPazbd999N3D5hMHATqs6/EMJbNq06TkZDnSQ7/ylUuep5B6B5EBG60M74YQTAmGxbt06dcUVV6iJEycGCm9ioPHjx6uLLrrIEu2RRx5RXbpUtR4999xz1ahRoypVeq+8QBn06dMnECZQKL17966kYL34QvEOHDiwKF9U+iZNmlgsvvvuO9WhQwf12muvebEsPA+CQSFwgIssPQIFEMc3yI9C4k7rNFHsU30DpxigpEMAfOQLFy5UzsqPSo6Pz/7p+UfP4Mknn1T4kKsroTf08MMPV6n8qOjABP86oWeA8MCzGD3zzDMKLbbeu0J4G2f864SKDawRJwhtu+226p577gkStMaHkZ5ALdlANEU2EAVr+VJCrGQKwP7I8dHYhA+wXbt2apdddlEHH3xw4bf//vsrtJQ6DRgwQIFHdaQbb7xR2bigVcWwBw4o9t57bwsT/AMTPMd7EMKjx+BFaHE7dvxpJQpK1ubrxFrnC35QtkGVAJQGlYBXKVR+LosDUAIvybkD7Sq/ye6uZAoAH4n+kd97773Wx+3WfRQtaXWTL7/88kofPCpKdSMMifQe0aRJk9R111U9lwKY4PnFF/+0AxU9AbeeEcbb9pADeE2bNk21atWqKN9mzZpV6mn07NkzsMKFTNVVOSf9vaEnUFar1ssyJ9A2ad5B+JVEAeCDtMeNEBLd1x49evjKi8myXr16FcK1bNmycF1dLk488cRCVtC6Dx48uHDvdoG5EFRom9CaOwmV1yb0spAGFEgxwvuTTjopksKFYmcvoBi6ld+JQxFMxk+TSd02ld+kf1cSBdC1a9dCzvBBBqn8dgQoAXRfQaggxca96LZikmrz5s2F35dffqkwFg7SQiHMK6+8ohBH5wGe+MDRWidNX331VYGl3UMqPPC4eP/9963WGlh+++23lUIBH13ZhsEaSuCuu+4q8EPPpFie9WEahwIF2AJdiGuxChnmvbpmzZpWgSIkFKgkCgDLTzZhbBqW8FHbcwVuqwF4L0Ba3WH940c6mADDWPj5558vOq6FXNOnT7e6485JM/DESsScOXOKKqCw+UJ45MdWcLjHLLwfoVLb8wPOCq6P+zF56DbEKsYfwwx7ngHhunXr5hkcS5rPPvts4T2HAgUoAl1ACYjF4GtiNnx0oAgJBMpcAaD7rxMmnMISPmKvDxktlD6Djo8XHyVaJ/zsGXS0rhgvO+WBLPoSFe5RIe346G7bFQKKAWkF6U2AT1B65513CkExdocyQ48jSjrNmzcv8JoxY0bhOszF4sWLC8EbN25cuHa7wHKkrcCAMfAhBUdAJgZrS3dzxocrVx4VPFb0kJkrAEwu2YQua9KEIYLddUZlR3qdOnWyJhGx3o6WUh8zDx06tJIIqGTOCTOsSiAufhg/Y61bVyRJj3dvuummgpKBcJjcQ48DPRIMR954443ACmHXXXct5A9Dlygk5quFaFh9KEYYNvTv378QBLJH6eUVGNTACyiBjUrNkjmBI9POfuYKAMcwpUWovPoMOrqgbpNdqMS28kErri9xXXPNT0e/IYw+KWfLjd6HPvuOIUGxuQg7XtB/8IfismXU40FeDKF0hYAK5jU214cv33zzjc4q8LVzXsEvIpSwPhSAQk0SH7/0q8N7WRyoLYpg1vLly3/qwqWQscwVQJg8OCfw9Ik4+1pvXU477bQC+3nz5nkOExBo8uTJhbD6nETr1q0Lz3XehYdbLlBJ9Z6EPtZ2ho1yD8WFGf3OnTtblcnuVjt5oYKjgsGgKq1KBt5hSR8KIG4xG4WwvGtKeLER2Er2DsyRHthhaeUZyw/VhvTxad26dYt2PRs0aFDI92677Va41ltMv/kJKBm7x6HzKzBL4AKTgvZEJ3o4UHJQWIceemgliz59vG2HTyB5i4W9byEMP3socN9991nR7KGAm9lzGL41Laz0AraqXVHxhqz0tDjwwAPDa2IfwDJXAGvXri2IpI9PCw+1C+n+aHc/XSKeXlHtN/r4FN1y5wqAHc75j3kBJ3m1uHo4TM7ZpCsR+1nS/+h14GcTWnzYCdj5hBLAva4AMFeBygdyy6fNK+j/hg0bgga19ni0b9++YIGIngqGBrp8gZnV4IBQAlvVrv3G0qVLj5JGblGSUGQ+BJg/f35BflTiYjPbmLzTzVTt6ylTphR4JHFhTxrqvL744gv9NtNrrEwE6c6jIgET5/q7jil2DNqkD3XsZ0H+27b9yUhNnxAMEpdDgSAo+YcRJbC1KIF5otD/u/PKP0qgEJkrAHy09jIaJOzevXsgQYME0lsnrF/Dfj7oz8nfblWdz/X7HXfcUb+1rlH5MKmI+QO9IlYJ6PEAcxvoNmMTTlBCt1rH9KCDDipExTDFJlhOek0W2mGc/8iD3YPAO31yzxnW7d4eCtjv7KGAfc//4AhUVFTU2fjDD/Ol51l8LTY4S5W5AoBs2Ndv09lnnx36o7TjOv/11snPTBgVwa0y6BXJrwLraSxYsMASBwoN9gXo7sLe3o0OOOAAt8fWMz19N7t+r4h6PD3MAw88UFAO6OkEMSzS448YMaJwi2FRlO6726pAMQwKCfKiCgJblMACMRb6SctXCRX8QUkUwOjRoyt9lFOnTnWtjF7Z8Pp49HVufTbfjQ8s2jDHgBYX5r426UYvfr0TPQ09bZuXriDsZ/ivX79+4VafE8FDPX1sfvJTQoiD4YI+J6LnBy0wNhTZBMXkZvxkv9f/0ZPRhw1jxozRX4e6dg4FdL6hGDGwql27dh1xKrJAhnfFjTICYFUSBYCJLN3GHN1CmNX6fZhoETHx5vXx6NtYUSH0iqBjgZZf3yADW3qb9KU99E68xuLo4tuVDq2v3TLqigCefJy9DFQqvUutz4lAhrFjx9qiWOFgslwMF7zTre1gO4BKrxOGCLbhEp5jiOFnvIT86T0Q8HXblainU+zaORQoFpbv/BGQ5cFtypR6W3Ddzz+0dwjhEYs2x4mNCmovo9l80M2cNWuWkhlPq7LDIAZLbGht7Qqnh3V6B8JHqxv2YAw8cuRIq4KiMiM9rK3bvJAeuup6pYGSsSspKjeUFbrSCIMWGduQdbmxldm2wUeFx7q5PrEIpQIlI8s4leKhUrrNzGOzktOuAPnAEAf29iAszaEnpCtDyAoDJVsZ2TjhH3JDmehyIe+Ya9DX+cEXS402PogLObEzUMcIz0FQePZ8CXos6O4XI7e8YRIz7vJgHI9AxeTNwbu+LY85xtsRhE8GSqoAIBsqK1pj/cP0kdl6jckodCvdPko3xeLG06vCoBJjWGIrAbe49jNUbqe1IPKkt552WP2/WKVCuKB5sHkiL0OGDCnqkw/5Am52hbXjFvtHyw9l5IYz4oVVAIijK1jcUwEAhWgkQ9jBrVq3HhQttirNJKAuLLqVaOXxEaBFKkZ4jw8YOwGxROj1UaJCgm8xfviwYdPv1lqCL1o8fTjglAu8kYaz8iMcnuvDEWdcv8qP8OCLFhVy+hHkRF78DJeQLywbIhxkKEZIF+kjvBfOxeIXewfFTTIDgZL3AJwwoJuOlgofnk2YKMNY2a2y2mG8/u1uv70HAbxgR6Ab1HjFxXPIAh62PLCLR4ULIkucuLpM4AOF4LTIw3AAPYWoFRTDAgx/7LwhTbTomI8Jio8uZymva+oQIG4PwDgFUMqPiGnnFwEqgGhlV5JVgGiiMhYRIAJJI0AFkDSi5EcEcoQAFUCOCouiEoGkEaACSBpR8iMCOUKACiBHhUVRiUDSCFABJI0o+RGBHCFABZCjwqKoRCBpBKgAkkaU/IhAjhCgAshRYVFUIpA0AlQASSNKfkQgRwhQAeSosCgqEUgaASqApBElPyKQIwSoAHJUWBSVCCSNQEVMhnF3E8ZMPtnosqMsloejZKUhNyKQPgLsAaSPMVMgAsYiQAVgbNFQMCKQPgJUAOljzBSIgLEIUAEYWzQUjAikjwAVQPoYMwUiYCwCVADGFg0FIwLpI0AFkD7GTIEIGIsAFYCxRUPBiED6CFABpI8xUyACxiJABWBs0VAwIpA+AlQA6WPMFIiAsQhQARhbNBSMCKSPABVA+hgzBSJgLAJUAMYWDQUjAukjQAWQPsZMgQgYiwAVgLFFQ8GIQPoIUAGkjzFTIALGIkAFYGzRUDAikD4CVADpY8wUiICxCFABGFs0FIwIpI8AFUD6GDMFImAsAlQAxhYNBSMC6SNABZA+xkyBCBiLABWAsUVDwYhA+ghQAaSPMVMgAsYiQAVgbNFQMCKQPgJUAOljzBSIgLEIUAEYWzQUjAikjwAVQPoYMwUiYCwCVADGFg0FIwLpI0AFkD7GTIEIGIsAFYCxRUPBiED6CFABpI8xUyACxiJABWBs0VAwIpA+AhXpJ8EUSoHAhg0b1KJFi9QHH36o1qxZo9auXavWffWV+v7779W//vUvVVZWpn627baqTp06qn79+qphw4aq4Z57qkaNGqmmTZuq8nK2DaUot6zTpALIGvEU01u/fr2a9+ab6sUXX1QrVq5Un3/+edHUEB60ctUqNXvOnELYvUQZNG7cWHVo314ddthhaquttiq840X1QoAKoBqUJ1r3ZydPVi9MmaLWrVsXO0foNeA3RRQJegSdzjxTnSbKoF7durF5k4FZCJSZJU5ppZk7e/bm0koQLvVvpZs/btw49dSkSeq7774LFzlkaAwTLvz1r9V5nTuHjMngaSKwefPmwa1atx4UNQ0O9KIiV+J4f33+eXVRly5q/COPpF75kVUMJ24fPVp17dZNvfm3v5U490w+KQSoAJJCMiM+aOmH3XKLGjJ0qO8YPw2Rlixdqq7q2VM9/sQTabAnz4wRoALIGPA4yWEW//IePdRkGe+Xmu648041cNAgJV3QUovC9GMgQAUQA7wso7733nuqW/fuatmyZVkmWzStF196yVJI3377bdFwfGkuAlQA5pZNQTIs013Tu3dJuvwFITwuFi5cqHr37WvZFngE4WODEaACMLhwINoXX3yhfnflleqbb74xVtJ33nlH9erTx1j5KJg3AlQA3tiU/M1//vMfdW2/fso22Cm5QEUEeOutt6zJySJB+MpABKgADCwUW6RRt92mMPbPC2FyEsuTpPwgQAVgaFlNe/VVNfm55wyVzlusYcOHq48++sg7AN8YhQAVgFHF8V9hsFnn9ttvN1Ayf5F+/PFHdZsYDJHygQAVgIHlNPbBB62dewaKFkikuXPnqjna5qJAkRioJAhwM1BJYPdOFLP+SVvZVVRUWFt8D5edfbDpxzbgTWLAs0HW79d+/LF6U3YQLl+xwluoCG/uufde1apVqwgxGSVLBKgAskQ7QFpPTpyofvjhhwAh/YNss802qqPs5DurUye11157eUbAasNSMfGd+NRT6uWpUz3DhXkBhfL6jBnq2LZtw0Rj2IwRoALIGPBiycHOH9t6k6Dj27VTV4n9QIMGDXzZYb9/s2bNrN/ZZ52lRt9xh1q2fLlvPL8AT8h+ASoAP5RK+55zAKXFv1Lq8+bNU//4xz8qPYty86sLLlDDhw0LVPmd/A8//HB19913qxYtWjhfhb5fKAZCH3/ySeh4jJAdAlQA2WHtmxIccMQl7Nn/vezWi0Nw/HGX9AKOaN48Dhu1ceNG9aosZ5LMRYAKwJCygQ+/+fPnx5Km5dFHW93+WEy0yKNGjlS77bab9iT85cyZM8NHYozMEKACyAzq4gktXrxYwcNPVMKE3w3XXx81ums88OzTq5fru6APV61enQtT5qD5qW7hqAAMKdF3lyyJJcm555yjdtlll1g83CK3adPGmhx0exfkGeY0sMJAMhMBKgBDyuWTTz+NLEnt2rWtpb7IDHwidhblEoc4ERgHvXTjUgGki29g7p/GUACHih//IMt9gYVxBDy6ZUtVr149x9Pgt3HyFjwVhoyCABVAFNRSiPPll19G5nrkkUdGjhskIlYFoGSi0udi3UgyEwEqAEPKBSf2RKU999gjatTA8RoWsST0Y/KvlF2W+6XP994IUAF4Y5PpG+wAjErbbbdd1KiB420fI43vYuQtsIAMGAkBKoBIsCUfadOmTckzNYRjdc6bIRBHFoMKIDJ0yUbEmntU2vDPf0aNGjheHM+/dbbeOnA6DJgtAlQA2eLtmVqcSvLhBx948k3qBc4KjEo4gZhkJgJUAIaUy89//vPIkrz19tuR4waJiF2K7777bpCgrmGymKNwTZgPfRGgAvCFKJsA9WPY3GPXHRyJpEU4CzCOW3I4ISGZiQAVgCHl8osYCgBLiJOefjq1nMT1ULTrrrumJhsZx0OACiAefonF3jvGOjuEePqZZ1LZdPM32aEIn/9xiD2AOOilG5cKIF18A3Nv0qSJgu++qPT3v//dOjE4any3eHBNNlxOIo5DdcWKcP/99ovDgnFTRIAKIEVww7Dee++9Y9vzz5o9W4154IEwyRYNe33//upjcRoah2ClGGeCM07ajOuPABWAP0aZhCgrK1Pw2huXoAD+PGZMLDbw7X+DVP4Z4tQzLh144IFxWTB+ighQAaQIbljWxx57bNgoruEfGDtW9b/xRhVlgxEO+ry0Wzf1yrRprrzDPmx9zDFhozB8hghEH3RmKGRNSarpIYeon/3sZ+qfCVj2TRX33pi8g0vwX55+uq9rr6VyBuGzzz5rHUeWlOkuDIAOPvhg3+JDeuXlbIt8gUohABVACqBGZQmDmaOOOkpNnz49KotK8b766itrTuCJCRNUk8aNFTz+4nwATMwpORjkazlyfLW47MI6//vvv2858azEIObNoYceWnT8j6EG/CDCzBhbhiFXW/FAtOOOO8ZMmdGDIkAFEBSpjMJ1aN8+MQVgi4wK9oa4HMcvSyp2JsC///1vhdODcJowHKKC4Nlo5KhR6swzzlCXX3ZZLCckWeYzz2mx32VY6cGzbxq+/bLOJiqzlwJYv369Gjd+vGW8ZFd+yIdlR/yemjRJdfjlL9WyZcuyFrvGpUcFYFiR45Se02XMnnc6Rs4FdLMAxHj/sccfVw89/HDRI9CgCHpefbVau3Zt3qEwWn4qAAOL53QZBsQxCjIhS506dnQVY7acGgwFgPG/H6GnMEwMkZKalPRLrya+pwIwsNT33HNPdXQCR3OVKmu7yeYfTGa60cKFCxUOIw1KWMlIc6NTUDmqazgqAENL9tJLLzVUMn+xOkrr79WDeeGFF/wZaCGwMpDEeYkaS15qCFABaGCYdHmIrJ8nYRmYdZ5gx+DV/X9bWv91sjQZhuArMe7xZGHSq2lhqQAMLvGLLrrIYOncRYPRkdc6Psb9tWrVco/o8fSAAw5QcdylebDl4y0IUAEY/CnAjDbuCb1ZZg9Lfxecf75nkmjJg0z+6Qz23WcfWgnqgCR8TQWQMKBJs+vevXvSLFPj1/HMM9UvfvELT/67N2igTj7pJM/3bi8+EH+HYXsNbnz4zB0BKgB3XIx5inmAFjlYEUDrf+kll/jidu2117raB3hFXCSnJl8tJxTDcpCUPAJUAMljmjjHq6680vhu8HmdO6uddtrJN+84ZuzRRx7xDacHmDt3rrr/T3/SH/E6IQSoABICMk028KhzhpjGmkqY9Lvk4osDi/fZZ59Zdv+BI0jAvzz2mHrk0UdlD9PmMNEY1gcBKgAfgEx5/bsePZSp7rXRQwlzejBs/Ddu3FgFWuyBgAmxF6EXMGvWLK/XfB4BASqACKCVIgoqf48rrihF0kXTbHzQQQo7GIMSWnBUYmdLDn8A7dq1UwPFkckeHoedYn9AH5lDiOukNKisNSEcFUCOShkGNgdJhTOJruvXL5Q4mMxz2+ADy8G2rVur7bffXo176CGFFQMvGhDR25EXv5r8nAogZ6V/3R/+YMyyGNb8YagThrD9d/WaNVWi7NWwoeWwBC+23XZbNeLWW6uEsR/AmvDCLl0UTiwixUOACiAefpnHhpPNLvLxl5qw3v+bCDYK8xcsqLINGN3/M8QJCJYSbWrUqJG6XxyGeO0pwP6A20ePtoPzPyICVAARgStltMt/+1u1j1jIlZIwVofdf1hasWJFlShQAA1lB6STmjVrptDj8aLnZWPR5Oee83rN5wEQoAIIAJKJQQYOGKDgSrwUdM7ZZ6vDpHJGoWku3oZh64/K7kZwjtJdvBS7EfwEDBs+PBH35W78a8IzKoCcljImA70qRppZgm3+1b//faQkMPm3wcXjcWNxWFrMKzDyeaaYGXvR0GHD1MeffOL1OpPnOJkJzk7inKKciaCORCoc97zNEQLduna1lsRwfl8WBJv8ITfdVGmsHiZdnDCMiuKkfeRUpK233tr5uNL99bLasF7iv+5yWAl4dj7vPDVBPA15LSFWYpbQDbYqL5Zj05+RcxnhWRkTnDgFaYcddlDoJcElu+nEHoDpJeQj340yFMCseRbU+5prFCbnotJLL79cJSp8IJ5w/PFVnrs9GCB59TpmDMOBGwcNcouWyjNMQv7pz39WNw0Zol4VN+64hwzr1q1TmOe4dcQIy6fht1s8HqciRAJMqQASALGULOB4c/DAgamLcMrJJ6uzpVWLStgGvNblnEH0KurWqxeILfYR3HD99Z5hlyxZorrKyoTuadgzcIwXaPnvu/9+y7chTl/y8ln45ptvqoFSNk6jpxhJJx6VCiBxSLNn2LZt20A78aJKBmu/AXJWYBzChKWbBV8DWU5stO++gVnDRwKGA17Lg1ACo++4IzC/KAH/769/Vc/IKUp+hIqPeQG4OTeVqABMLZmQcl0mS4NpbBvGDP2wm2+OPO63s4GK8P3339u31j+UQhSZfykbozDG9iIcNjI+5I5DL172c70VXyjnJ3q1+nZ4/f/e++4zdjszFYBeUjm/HinWc7vvvnuiubj9ttuKOvkImtgnLrP0qFQ4qiwsYcXgGjkz4LRTT/WMOvbBB9WHH35oHW+OdOBiPCxh/I54OGINBkx333OPulDctL322muhWOGsR5y9aCJxFcDEUokoE2bSb5F18csuvzwRM9kBN9yQmGPSKS++WCVXMCQ6vUOHKs+DPujdu7dlVoxzDZ2Ecfp5F1ygMHzB3AMmSo+T05fhsxBu1938DH799ddquUzgffTRR+rzzz9XX8j4HtfgH9aVmVMe8DORqABMLJUYMsF3wLChQy0vOjHYKGzxTeqEIvj1R+VyUn2ZwETriGWzKIRJwYelpb9ElkPf82hh7ZYX5yNOePJJNfGpp1QnWZ67tk8fK0ksTeLMxPFyVNlnUknLZViyUSYsoUCSIgx1SmW05ZcHKgA/hHL4vmXLlqq/tN5DZewehbpIN/fCX/86SlTXOGg9MVvuJHT/o1Z+nRdWQX514YWBxuUYu0+SSbmVK1cq2B9ALozp01w5QI+jmZyUbCJxDsDEUklAJnR1MTEYlrDUB+cjSdKYsWOrdKExjj9ZlhaTICiSp6VlD2MPgROKMJM/a/bsVCs/8om5ip133jmJrCbOgwogcUjNYQgnncXcdDslxVq/3TV2vot6jzE01sOdhJbY7fBQZ7ig9zhBCFuK0yRUZrg2byjpBO3Sw6lru3btjNnC7cSHQwAnItXsHq05dsz57Z3HhFzPq65KNPeo5DgNyM38t76cH4jTj5KiJUuXqk/F12DSBEMlewIQbs9POeUUy1kJhhCDxQqw2OoC3KTBXBv7J0wlKgBTSyYBuXAIJ8xj/So/ksJk3Og771Q3y0edFKHFnDp1qusaePPDD7fG7AiTBMHPYLHKGDQNrA5gKXV7ccEG70TW+F12KuKwVv18AvRebhJsJ0ycaK0S2HMc8GkA12UH7L+/+u1vfqOaN28eNOmShKMCKAns2SQKu/TpYqcelF555RXVQ5YQk7IlWCOefzDD7kb7ivVfUpUf/KPO2kMGbEU+8ogj1IHi3Qh7DeqIEvi5eDr2m6CEEdORRx6p4OUYG7Lq1KmjcJAJ8IN1JlYpTCcqANNLKIZ8D40bFzr2H//3fy1bgtARXSLMmDnT5amyzHiPlTX5JOl4GWePeeCBUCybyDbksVocGAwFHdvbCUGBNBD/hWcW8WFohzXxP5n+l4k5o0yuS29+sPxD1suTolWrVrmywjkCdSN4E3JltuUhdinuJzYQYeiss86qFDxs5a8UOac3VAA5LbggYsMAJyzBMMbNZ39YPph/mOnRA9hDushBThEKm2Yx92FOXujyNz3kEOfjGndPBVDNihwTUC9MmaKu6tnTMnYJmz3YvXvttAvDa/Xq1WqTdKndqE2bNm6PYz87WFYV4KuwGCFve4sBEPwo4L+mE+cAqtEXgBZ/nJi0vvjSSwqmr1EIji369O1rbf/FLHhU+uTTT62VBbf4YV2Ju/Hwetb+tNOstfp7xKPwokWLKgXDshyW8k444YREbRAqJZKzGyqAnBWYm7hYwoO1HWbxo3T7nTxhHfd78f4Dx6NRvQ+7Of9EOqiEBzdp4kwy0XsY39wlPgFWyhzEOJkIxdges/Wdzz030XSqAzMqgByXIta9YWiDVh+OMJIizIZjc00/8b6DtW6cRRCGEB/LYW6EiTo//39u8cI+w3o+DI3sA0bC7N8Pm1aew1MB5LT0UMFwMMaixYuLGvqg9cMMOeYGYJYbpiIgjYsvvVT17tUrVOsJ+4Nly5e7InuQKBPdoMY1UAoPk7Q5SEG8krGkAigZ9OETRsuKln66OKTA1lacs+dHGG9jYgxGKXDLPVWGCXChDQcdMMY5/rjj1L3i3w7GLF502+23q/li6NJXttAGmb1f8NZbrqxQCY8w3DLOVfBq/JAKIEeFu0Lsz+GFFhNsaNH9CP7zrvzd7wrjeBy/fbiY4GLrKzbP2HSq7FYDX5y040Wvvf665SCjjzjhgAFNMVoqdvluBAUQdq3ejQ+fJYcAlwGTwzJVTi+KR50/iDPMD8TNVbHKj0oGE1bsArxt1KhC5deF0yu//RzLYujqex33Zfc+bhDnoDNcfPPbfCAb5iXcCLv1sAmIZA4C7AGYUxaukmCTydw33lA3y+k3QehU2a124oknqhZHHRUkeKUw555zjuUq6w7ZFOTlIONT6X30lfP6/kcOKO1xxRWV4uMGy49ew4mmTZuGNrWtkgAfJIoAFUCicIZnBou5r8X6bjeXlnGebKR58KGH1HsuPu/0lNDqw7vNReLJB+vgUQkThnAkgqO6esrxXzAK8iKsPKwSY59+ogx23mmnQjAc/e22/RcBongALjDmRSoIUAGkAmtxpvA9N0fcZD8uR1nBVx4m6tbL8VadOna0Jubg2eZ5cW39pGw19SOM67HnHNtVcWR3EgQ//X8VHwJwKQYf+F4EU9/+0uL3EpsB27gHvv8xXHASJiHjnCrk5Mf7ZBAoS4ZN9eAyd/bsql9uwlmb9uqr1pFSWJKzHU3oSWA7Kp57taJ2WKylH9OqleoiXXG/STk7Tth/LBlOevppa5ddsb328JKDwzrgJAMTifCs6yTka+KECaHcdjl58L4qAqJsB7dq3XpQ1TfBnrAHEAynREItEN/yOM7aa3yNRNy85+qJo+LD5h0n9MLpRJqEoQXmBVDBR8n5AF5jezzvKX76QYjjRmeecQYrvxswJX5GBZBRAaBVv15m0ItVfj9R4IsOY3RM9GU5m96mdWtrNeF68TTs5oNfl9vL0MjaHCQ9Ci8FofPgdXYIuKvr7NKvMSnBM06UDTqoMOg+w479icces2bfs6z8dgHtLg4v4IMf8xRRCM5BcLoOySwE2APIqDzefvtt1zG/X/Jo7eGtF77lTHBYAWtAWBDC+w52DgYl9AxguvzYo48GjcJwGSBABZAByEgC6+dhCa2u3/72sDzjhocd/3mdO1v+70aKoVExoyRnWhgGYH9BlPMAnbx4nwwCHAIkg6MvlygmsF/KppowFcxXiAQD4Jy9KJ6DkCeSOQhQAWRUFvtHmLFvK55zSrFzLggkP2zcGEk29AJI5iBABZBRWWDN3s/NtC4K/MsfIX7rTCW4zXbbU+AnL+YPSOYgQAWQYVnAYi7oRN5+soe/lRzyaeqyGeTC5GQYwgk5cAhKMgcBKoAMy+JE8UUHs10/gqFPX/HLl5Rpr196Ud+HOUQUig/5KsUSZtT81YR4VAAZljLG8927dVN/uPZaK1XdNRZOlUGF7ywz7KNGjEjNvDfJ7EL+W8SyMQhhORO+CUhmIcC9AFp5ZLEXwE4OloGP/uUvls2/tRNQWkgcTQX/e7pisMOb/A8jpxEjR6qPP/7YGuLYm4HQ6uNsPfjg7yo9H33XoMn5yZNscfcCUAFopZ2lArCThVuvvFV4W3b9H74Jv5BdjjgsEzsDf5RVAjjmhLch2DN4ORrRefA6PAJxFQANgcJjnmiM6lD5AQhO2dksY3w4IwHBfgErGSSzEeAcgNnlkyvp9BUOVv58FB0VQD7KiVISgVQQoAJIBVYyJQL5QIAKIB/lRCmJQCoIUAGkAiuZEoF8IEAFkI9yopREIBUEqABSgZVMiUA+EKACyEc5UUoikAoCVACpwEqmRCAfCFAB5KOcKCURSAUBKoBUYCVTIpAPBKgA8lFOlJIIpIIAFUAqsJIpEcgHAlQA+SgnSkkEUkGACiAVWMmUCOQDASqAfJQTpSQCqSBABZAKrGRKBPKBABVAPsqJUhKBVBCgAkgFVjIlAvlAgAogH+VEKYlAKghQAaQCK5kSgXwgQAWQj3KilEQgFQSoAFKBlUyJQD4QoALIRzlRSiKQCgI8GESDFaesaLe8JALmI1BePt18ISkhESACRIAIEAEiQASIABEgAkSACBABIkAEiAARIAJEgAgQASJABIgAESACRIAIEAEiQASIABEgAkSACBABIkAEiAARIAJEgAgQASKQFAL/D+IOkuMyOzpPAAAAAElFTkSuQmCC;" vertex="1" parent="3oKLYj8sFJzThlAzcCkO-46">
          <mxGeometry width="65" height="65" as="geometry" />
        </mxCell>
        <mxCell id="3oKLYj8sFJzThlAzcCkO-49" value="" style="edgeStyle=elbowEdgeStyle;elbow=horizontal;endArrow=classic;html=1;curved=0;rounded=0;endSize=8;startSize=8;exitX=1;exitY=0.5;exitDx=0;exitDy=0;" edge="1" parent="1" source="3oKLYj8sFJzThlAzcCkO-42">
          <mxGeometry width="50" height="50" relative="1" as="geometry">
            <mxPoint x="180" y="360" as="sourcePoint" />
            <mxPoint x="250" y="320" as="targetPoint" />
            <Array as="points">
              <mxPoint x="210" y="340" />
            </Array>
          </mxGeometry>
        </mxCell>
        <mxCell id="3oKLYj8sFJzThlAzcCkO-50" value="" style="edgeStyle=elbowEdgeStyle;elbow=horizontal;endArrow=classic;html=1;curved=0;rounded=0;endSize=8;startSize=8;entryX=0;entryY=0.25;entryDx=0;entryDy=0;exitX=1;exitY=0.5;exitDx=0;exitDy=0;" edge="1" parent="1" source="3oKLYj8sFJzThlAzcCkO-35" target="3oKLYj8sFJzThlAzcCkO-9">
          <mxGeometry width="50" height="50" relative="1" as="geometry">
            <mxPoint x="180" y="230" as="sourcePoint" />
            <mxPoint x="230" y="180" as="targetPoint" />
            <Array as="points">
              <mxPoint x="210" y="280" />
            </Array>
          </mxGeometry>
        </mxCell>
        <mxCell id="3oKLYj8sFJzThlAzcCkO-51" value="" style="shape=ext;double=1;rounded=1;whiteSpace=wrap;html=1;fillColor=#01c7d4;strokeColor=#01c7d4;" vertex="1" parent="1">
          <mxGeometry x="40" y="180" width="760" height="10" as="geometry" />
        </mxCell>
        <mxCell id="3oKLYj8sFJzThlAzcCkO-52" value="" style="shape=image;verticalLabelPosition=bottom;labelBackgroundColor=default;verticalAlign=top;aspect=fixed;imageAspect=0;image=data:image/png,iVBORw0KGgoAAAANSUhEUgAAADsAAAA3CAYAAACy5zLIAAAAAXNSR0IArs4c6QAAAIRlWElmTU0AKgAAAAgABQESAAMAAAABAAEAAAEaAAUAAAABAAAASgEbAAUAAAABAAAAUgEoAAMAAAABAAIAAIdpAAQAAAABAAAAWgAAAAAAAABIAAAAAQAAAEgAAAABAAOgAQADAAAAAQABAACgAgAEAAAAAQAAADugAwAEAAAAAQAAADcAAAAAL6fJBQAAAAlwSFlzAAALEwAACxMBAJqcGAAACEBJREFUaAXtWX1sHMUVfzOze3u+s312znbifEj5B1oKiqAqQlRCVVtVKooohcJBAiFGoFCBaGTaFJWqyab9J1JxCG7TCNLEbaBNwJUtUQkhwR8BVUop+QOqJgJaqS1NSPyRxHe2726/Zvpm7bvsXvbu9m6dQ0Ie6W5n3rz5vY+ZeftmFmC5LHtg2QNNeIA8OTysNTEu8hAaGaFBgMEDr65O9V1THNBH4g0OjczecmPVmCNsy4yseDMALTe2GSWXakwrjCVeZYnN5mX7d/rDRS+9FXWfIs0IPDO8Ym1v0jnoCDGVeDT3UBDGjpGxD4FCnEhpHJhtGWvVWPwTQYQQkmRabOjR+9ZVjt32wguqba8YJ0B5DpzNo09k5ip5GmkrjTAH8RJuJSll3y4YMBnUL2ncKu7ngsfcuqCdqhbbaeTn9xMKjqQRqrhPWfcW81yMkbTYyJFNnZtWvX3N1CMbWxJaa4kMbdv8qxLfjw8dXU0VdWf7xOywHnIp18Iu4YZ5tmLPBurxn0Dq1SV+ZsZeXbOC0Vtu7KzBC0I4R9ZDkgerdPWoDW2HCwdSBx0OnV51CJBkjImNFgeDcxgHDJ2lfgZATYf8uv8HM2+XaNWeDw699BAl5A6OkazEQ4ggGPzulW0uxJjgwi71ySdlykdHBjft9NJq1RsKUG0quV9ToB0NKhc0HmbwzUkpaOkOcn+5AysUrZ2cEW9ita6xaNitWrLjHu54AzMBs+C+lkFtS9ztEeuKQQe8h5WrY2ze4t+cLQjfK0AAXduVIMcKprg0PetsBCS4muCfiq4UTPyz1K71tLnzvDGbfY1TLl+9bhEC47ai/Vk2zEL+HiD2guWSgHMsmDojq2FLpbPCjivznd3X8YW+FPswb4jJ1PezK8sdS1CRhwWSThYklDE3veKPP3n8UhTYhpZxFEGlsed3pA8xStK2Q/7X/+zUkyV6K54tNxZ38jcsR6zHPPGDVhjolVHeX17i57UeemYfP3x4XZud3HhLFzmYyWTKIVMmvAx3Po28+4NdTNzTg+xL+RgyW/c9K0AMMGZuOHb46U99nVUaoWe2TSRuiCUTB06cOeMm9CW8Hj77SbZgf910xJ0l2lI918N/Tcc2vyZ/1xqrZ7246NsuxtS0aVyO/t7+oHromZXnE3kgS3V3l18NEpA8BRgt544HgUel6bouE4x3gnFkV2Ml9MwCJgiyZC9dirRgcfDCFhCLzwVY3z96s64MgYdhOYipxJdV+YAqGlVBB0ZG4j1O23dtLO4YwjbE4vGfWUZ+UyltY4o6iYfuQM/nftr7cdES7eUtJ0Fwk9kcVqKWDOmWQmHaq488ycco+bRrz9RXvHRZv2vL8zcw4myiApNSQhwB5E5C2Y0CkxEiuLvEiaIRPrdy1+jo5Zjixam6jLtmlO74mtRRq1A0UUeBMohlFCGmJQ6h3901hInr2wgWaCzmQf2oezsa6CvlpgAVjev3dso+HFcOft4+hTgbVC3xDBrnkrljA8e6osS2o/EuDfcwGHD659gIxvACeuv7Brecw3Z55gdHjt6mJZPv7HngO0kvX7W67cDvMc2tvB/mCLhZEGjnIC4Kh4xVjqdMBGdJhdyfrAK8AZADo6PN0iC2H1fWFm5ZX+LF7ITEsTs7YXRUr3p1WTamUmhl+4cvHrtdTSRej1sX2vSHm78sO7+j99+YwGNSQT5YMzR1Y6WcsO37tu79LWGxR0xjft3YH54+E2Zc+ABVAw2Xn4wWoR1XAyqgC9cByF/0UnXPVkITitu/LQHZyaJP8InUdV8+DcrfQPAJyJ1aUzkuUvv2YU2Z2y2DD7eZvgqO655TDs6TL/rVlxTa2Jwz80bhXLFn/1Nbffe9ZMHrDEP20n/OKFyUjlUxPuKGNHxOBoXsw2RjvFPt80X0WiaHNvbFxx6zEOhCLbBW9r1yaPs/UJ78hS5LsmdDS5OMBJLtMXeSQkX1hrDrMIee2To4obvxFmlg3oEEphXZ0IOWiDGysYoNJiAKzpXMCeqW/r1Tr9dlKjEc32XAbbsXWjm76vuzxF7v6d/0dbhPdlz/d7So28uGKaqKIPI6BrMqchZNLmNihTlUbL8le3rUOyaoTr/6jI7HuW0Y7zzZD2aGQNZKfpR7FvF9DsU3xEn7L7+4KwgviNbQzGqE9DogevxAFKfWzR6pBmQVGl82luEpdw6/Bfn5g1sURDfQWB++wjwGYUjhi6k5VQLut2g6GC2YWlYsuNtP1fGMvstPgndTX7ypA9STjuAXNuRO9aCmlUHPzQpKw7b86JfJ4nnWD52586O/0edK9IXEYbdfn1uzmqKk8vLVg3dWaTgBnvesHLkLxfln+zLelbWGZlZHP+PPV/662JJSZRX/ah40jWnlW0yl4/ZsRwbZPcvbVRphPEXTLx8LWBH79lRg6x7m+tXKWag/IjKHI2/3QVBWoXhk4LoAn4GxC7cAFE8CdbVbYoaGlnEzsnEOSebe5+LJZE5MTKzApoUHd4bRlbOBAd1NMefnO8mro4OYdIfff83oEtlYDExUw6tFvDqoPLu6+mQeGLou0Zk+ZZpx6F6NGxon1LEtYCx2zKR9Lk97bxIyDz53DbwM/7rCCIoqytyYG1d0NUqIbKyW63j/Ym+xn+fz/uCyqIkDTq6Qn3kLp7Tghi4qVmHAvtlxrJMOt+QFAeDHrDgoticyLw4+rhvazXo/fgsU9rvxyBlXy/fN9wb23qEAfc3i5O6xI9vHF81qyaPlAYrhXpVLAD9Rtlx2ywW2ZAqrCIm8Z6vgViULoeClmzDxkiFwj1cduNyx7IFlDyx7YNkDnxMP/B8or8w4v+y5jAAAAABJRU5ErkJggg==;" vertex="1" parent="1">
          <mxGeometry x="760" y="273.25" width="59" height="55" as="geometry" />
        </mxCell>
        <mxCell id="3oKLYj8sFJzThlAzcCkO-53" value="" style="endArrow=classic;html=1;rounded=0;" edge="1" parent="1">
          <mxGeometry width="50" height="50" relative="1" as="geometry">
            <mxPoint x="690" y="300.25" as="sourcePoint" />
            <mxPoint x="750" y="300.25" as="targetPoint" />
          </mxGeometry>
        </mxCell>
        <mxCell id="3oKLYj8sFJzThlAzcCkO-54" value="Tableau Visualizations" style="text;html=1;align=center;verticalAlign=middle;whiteSpace=wrap;rounded=0;" vertex="1" parent="1">
          <mxGeometry x="754.5" y="328.25" width="70" height="30" as="geometry" />
        </mxCell>
        <mxCell id="3oKLYj8sFJzThlAzcCkO-56" value="" style="group" vertex="1" connectable="0" parent="1">
          <mxGeometry x="334" y="120" width="182.5" height="40" as="geometry" />
        </mxCell>
        <mxCell id="3oKLYj8sFJzThlAzcCkO-34" value="" style="shape=image;verticalLabelPosition=bottom;labelBackgroundColor=default;verticalAlign=top;aspect=fixed;imageAspect=0;image=data:image/png,iVBORw0KGgoAAAANSUhEUgAAAEQAAABECAYAAAA4E5OyAAAAAXNSR0IArs4c6QAAAIRlWElmTU0AKgAAAAgABQESAAMAAAABAAEAAAEaAAUAAAABAAAASgEbAAUAAAABAAAAUgEoAAMAAAABAAIAAIdpAAQAAAABAAAAWgAAAAAAAABIAAAAAQAAAEgAAAABAAOgAQADAAAAAQABAACgAgAEAAAAAQAAAESgAwAEAAAAAQAAAEQAAAAAM+OuvAAAAAlwSFlzAAALEwAACxMBAJqcGAAAE8FJREFUeAHVWwl8VNW5/87dZs1KNiALJCQhRBNBECgioCIKoiAooKBCedXWDVG0Fdtn+xQEESqbYN0ApRqpT+WBIqu8YjAFJGwJBUISIAuQPZntLud9Z8iEZDJbMkl/fd8vk3vnLN8553+/7Xz3DKm4f9jrSmX5k5TjrJzOAJzRBFRvsGo22xlOJzk4SbLSpqZCMBipoqjnRIO5njdI5RAd3dBYV1vP1VrsBrlJroszyP1GzlbIQw+p8P+MKKUk4fCZZ+NE0kjK50x8XDtbuFZQFINzJZTicigIhHNeCf4XOLynGnBYxmo1QkAGAhovNCGQFZQXLlEg54hOVyoIwjkb0DI+NO5CxYNzLg6eONGCXf6tqdehk8+UKWTFEKPuFAFEp+xXD8ylZwtWg90usQUHQgwoRgw2xMd5xTsEihXy9fi5jHdlnF53XI2I2md6+dVdEQPH1LLqfyfqc7hw3gVZXaLygjRCJPmudcGlp6bPgaM/vYcCwnfxhCkHRNE4sHDm0J1qasbqhFV//aGLx+gUu/hDhc9dUtTlKBQcFUUYJMD/tADCOJY9OWMKPXFoM9EUSevUEL47iVgt4Ih2U8hpGtd7KYlO+KbX2+9d9d2r62vxoZPEIwWPXZI1FADKpgVUp4e+oK1sAwirqHhy6nS18PgqzuGI6i7ryERQxxGwGUz5EBa+2v7F/k/6EmJj4/8rKPFw4cxyRV2vUGJktpERAySTo6uZCWhDceu2fEYzhzwFkq6xHVptWnb+CwPaouFjamrM1irK1urHZn1X/9mGtM5zDLxnSt6paUwyFLgOhqu3AdFoBwirjF/zSQ7NHj6VENKtHsIpgZomqpbGUU1rX99/fv7jw1yT647rjYcLZxdp8KlGNQNo7kaBQgQ6BY+AsMn0euejHeSuyVM5Qazx2qgLZ41BTqzuaN5XFfNm3d6FbFtYpR06NemUrL2DKuLZafACXLVaT/pca8//fPtbmj34ITCYKjxzaRkv6Bv2vHibNZaeOvqxbdnL44Jm2IpB2sFj44sU+i7GTyGtit1uCYRxvOwTENaj96rNu7TsoTOpJFV1l01xzYzFMLShPkH+OS+Hrvuvu13lwVxHHDw1/iwIm1WOiwPNl5ugoFB6yS8gbDLxyz/YzU2YMpoIQkN3g6JhNFxXXBIKxQWfKSsXTgwGjOxDJ2/9kSM5lGphoPoCA0NK9MWSyVAdECBsUnELFp3gJ88ex+n1pSyW6E6iOHnb5Sth/JWyzXTNa1M7M1ZG3qnbTqrkCzSepkD6C+h+M0whSsCAMKaxz7+SKw29fTo1hxbz3QgKwb2T5Wo1gOoww8Wz7ztW/vbxQBblajP04Klh5yn9VCUkDqNQV7H3K+49eNkh26qvVHUIEMaxx+I1uWT42IkaL17oRkxAsWKchrEKqHKYeKnkXWX5S495X9H1mvvyC9OPENhuBxLvT01cvRhkRtxekLp6tcOAMCZxry07Iby0eDRnMFztLlA0BXWe6T2brabp+cqL6xzLX5rNtupsDp5o3D9O3rLdpuUqGo1oH2d46tFcxnanQC8cAl1jpwBhbGLvnVLEz3ziF8RkLhCdDJuZd9EFDSGGDK2CJ6rqxasV62H5S7M8DXHLkdPZP2jkU5UiGE4UPbXyUoaG3MTzl8NjenfMhrizi5n93Bn96HHTNVPI8U4j6860+TtGydfyCq56JimKXYTLl9apy19c4Cpm1xknSzKPyupmO8f1C8hmtO7M7nFfRTX1fJ/LJ4MDhPGKXLjsmDxt7t3UaEYfjvsT9gnEkLHOvggNKzOubcipPqqBq7j4uvrmvBdZ3cKzlxK+bGr6HmOYAaAobZoH/AXB12ta2WMIuVd9DJhZc8OqM/nxlqce3XPO1DO1TjJDn+piCLPVgaQ4MMPmtrAAmItmE8QMyrpmRzy15zilpO8NKzIGTn7IRmlSpySjmS8vCNBf5H594qa0dYKnsTpT1iM1+2LmTntOES8ttOL6o+saYOrRLTArbyMkXz0HCu4VOkKCwdBWZdw7a6rQo+L8gkh7E5SJ2DYIElTNxoFaxlh0/NF5Gbjnt/KiEkX6HWcHMOMe2SKFwIfDZsPjMzfC/tRRoFcw04oKFRChu9WFYDzV2qi260jA3FADAkpgsIQxVVWYRC4yPl0CSMoudVkjERbgijnC9ByJXUX0mmVhCTBr1ib4+oZJYJCt1yr9/Ef/AlJ4GDqLZmae2mPdybA4aBT0nmo7VkZp5f16vpR1CgoQmpPDJ39nm3fZwc1DL+lVJyQE5okZa+GrrMkgaP4NHy8KIJqMvgFB0DYlZUOtKHVs8R5aGzmu5MX0dGcqMyhA0qMmPXsFdEswi+wzO8Cesx7dwCsT34QDySOAa07beZibM/YwREb6th/Y8efwnrAh6SZQg3umqMREjRC4PNdcOg1I0m51YYVdXIqSK0Gr+MnF2NO1URcCr9y7BKqNPTxVO8tYMGaMi/ZpP1iaYPaQSVChNzvdvFdmgVSgNR3Bk72upp0CJGUvfaLKzv0ebZ+Akhswcdi2KCoRfjdxMUgqWl93wnpBrwcpxOxdXTCnMWr0HMhHCSE+JM2dtafvFOMPM+HKPsxK7byE9PvePrPKBivx0eicgzDHEaDzYO31aEK2Zt0Fnwx5rJ2RZeG6MSbKMzsUxUrJAHeMfhxyEVTiM9njnJn/f2h/UiTuS4yKWx5rhyQkbT+dfpVI6xQB1USlQB3oD6wqUBteFcYTHSuzJsy8euHMWplxI7t47CtQEDsAjSxTgGtEeB50EeHt7Ycqw7GwWLh/xMOwJzq5a8DAIUV8AL/UCetd47NrwM82+0f16bNXYYlSLhvVGjuCgUtjbpGt0MUFHToR0cIaeeAiBODDRSAS2ydgGw925q6CbbBqy9PARJcRi06jBqQBh2/RWshhhY/7DYX52XdDjaTvmm0BMqcoHckc7CwalHZXy1h449VVtm7U7xvl/sKfrIvkK3ZMG+DkXQC0bsTuZZQalBatAfWiHG0EtuPMPAhxOhB64CKFtmJzIGUU5PYdDsPP5zpB0YWHAqdDTWwOyKoxxnj6linw18QbnVLRJXuk5jkz49efqG8Vua3BLyAZa+smnD3S8L6ikBCCu8KAqXntWqMK9tON4OBRciJFEKIlIGYBOHwrVG0ywxcDp8NQzEToUY3NMehdFBmqdSb4Ni4F/pB5BxSF9EDH6D92CXherCGqZizQfSbV0mJMXf19AnLjO9XjT1+mGxVNiGx+r+/qF/iVCVSzZKhVMrAPMSI4oQIIsXrY1W80bA5NgiRqgSmoMpt6Z8IHfW6CH2L6OtWxy8HAmQuaaokXhDVfDBpc574Qr4/8vg2VWdvPivvxVEjYNSPg3jX475ogQXr555BS+jfgUfoqx42Ho0NHA9pq1DZmnLqHEvXiVyUD0yd74t5WqZtbbMynpp0l+nUYZ3QbGE4Dw1tBM9TgwRsKdoGHS2HR4OCEbgMDD/dAmCiUFoeFP+kJDFbWTmWcx4uW1M6VZRjqrVNQ5SoaV10DvgE7AXzGHjgfeQ7s36AxNsVC09iJYG6qA9liAcWBeRSchJOavVAw41JBhAhCi38bIT5IkmMrvfFqB8i4dY3RNTb4DaoKSg/uyrqSFNyIJeQDueFbTJicQ+OmglajQWkGqgephJCaYyCGZoAg4W4As18qAiJbrSDbMHWAnqddBi3AuTklg8DpkTpx5sspKYd8dWsHSGmjbbIFQtIIGrkuJTxCRIZtAkj7X2TbbB8UHmg9juMM6qxgr9wOvLkf1uNbeMxisY+IiSIGhoKg2FFyVJQcp1t2Ty96miyLk7Bdj9CQ+kfNunkrEmJ8gsFYtAGE5jzIYw79BdCCT7pcnx/a7ZBKIGPWAIRfwsVfi/hZPbUrGOm6XCr6sbojoDQUghCScb073jHJEE0mfNWIJyRxkYrd7gRIRSnS2KuK5rilpRO25zG4E/BEpdmgr3qUU6Yv6x21q6Xex00bQEZWrx1vAUMq0Zp8dOlAFeYFIDkXyJDPMQzF5FArMJxcGBgOXFBzfEOVRrCVbQFz2quIgpsDRCBcfodtAEX8sDYMIAaI84pMndl6BISdGYvSlPrbVPsjy3rHBgQGm1MbL3Pyqvhr8LQLdc6+I/9wkjJOGG0FGfYJgoGbFwZOa8ImtJZFs60Wzomg1P4M9svbUCp85EkZOOzDJIMBgjyYFDltDOOHH5Milw+R5Yc/Sozd0XpYf/cts1y2tyyq3k5/gQfu/PXxX68gGAO/BHLzFpwcm3SrRbt6y/hUm9CLuFfxElhLN4BiOYN1bKfYccIX10238upvPusTva2jvVsAee+I8Q6cAebtgiR2QCd9D5CBX7dXERdrfIK07tpex1XU5opAWP65FHfQ9Vjsjliblm2+UAzJeSAN03TigpxeUV+1qQzwSwsgV2wwBvMRbWxKgDyuN2OSEHUeyE0IhspYoTh7Imym1aIa+dgbqY5KsBb/BVk0xyKe+LQqw1PVYNS06myBPrImNuTdVlUdunUC8taOCpPNoWViz8Afh6dheNyn9N8NYGBP1gvhCNSOhpTF5z6JgKP6AFgvoA3iWCLZC7iMB0pcCNUcGGc8t6d35FafbP1UOgH5tNDQC4OXWD9t/VfrMQLtg67ey7m2awwQkUYPtsMTd1Qde/lXYCt+DxfNQPFMuAhrKqFP5MSaEb3gyAlItU1OxH1LTFCsmLqEVWBY3uibDaoJtWCcE6gs8gawISiWs2+h9uBRecJU8Vpniq9IRcLJw/XCy/viIz72PXBgtYw7uiuhD8Y3+GYoCMJ8BrVHYmAYjsLN9N7LipmbZCoTMGF7Xo/q83dQrRdAihkHUtRI1KIoNEH1cLtgWvB5jHFVwOz8NBRe27tXWH9Q60uZnqqdj1A1fHJJauzRZJK45wBXPF91jx5dE8EwnWI+tsOE/FXbRbQpG8GOwRsRcSMOFtipOqbQfPo+ySZdEk1yPx0fzTs0LaETU7y+JtT1hFA4UfzimTv39nnjhQQuaiVHiGcxUFlccr1rx+5Q6iiG6+iOmbRo1iqoVhtGRpRO2btjx46ADtf5G48rsp6WNMondzoJhHrcy0zzdkyovouQoVVswHNp7zyXIfVeLXA8/vDCbQporLqUEPZapXHINNu6rQ9vW5gULG8uskIVMWjs2ZkELr7bhmgjHJyaWDNtwIA+5a0nk5+8dH6yFv2ChAk7T4Fq67ZB36PQ1VHrmK3KyQ0r938YHQw/7sbhEWZVIwkdlRDMl0CMmZZ9OM4y/c8z+ha7TwI3WdomyyOrs4SEPwiEvx50eLG17v07+p2iKjaollELa745sOvgwU6HEFxJvSBhjOTdyXuYGUWbEWWEouPTym6eMKhXiYcmzqLBgwfLef0WvdGHj3oVf6+Hv8jAYkwVenNA3vgEXI7a2KBZUu+reH3X3L1L4gPu16ohp6pCHBWZPQpQtzHnGWuiBX8cYrk3pm8mBh7+6Z+pf148SEpCSRGsFF9cke48Co2yaKHyDVvqD26dvPPVtokV/1MFzqYqPQO1c+wEUIioFDyYRmc8NbZXQQD8W5r8lLJocboQ96QBJBnMHRLIFh4B3+CCaqn1pu+b8nPeys/pG3A/bMg12NSA9I2BYdKRqlXjtSmrHojI78ggrrbH+r21MUuMf0aINOK70AAl0tW5o1e0KU2a/YY/nN948C/Hvw5ojWwIroEK7O2r7+HQZoTp+fL37xXvefTmqA5Jhjvj3L6vr88K7/u0GGHE7W43Ey7Lqjlinil678cpeX9im1e/xIXpxEzq41UhM6AReq149kD+vukDTf/wyzGABocTFr0/uGf/J3SCeLVtzi6Azh1tgqDYqJL8Xfmhz2/74fkb/XXn6hy4efbiCpnchOmgakYG+eWKCSa/GWt/g7Wuzx2wZOOgsLRfGThdU7d5HdeAuFVo0myZebVntj178J1UV7GnKyfgb+9cCVr3BnqRty8cRiaufiB8j3tdV3zPHb3iv28LyXxM5HjMG3QzofexqY6ENWXfHZiyx7v6cEaBZoKbyjA1CdVzdc8Msk5YcGdobndOdcftb/7tpaQH746UTId5goeu3EP9rhwcRV4FNXp7fd7uO/YtGOmJNVdrx+MsrVSG5RhCJXplUqo2a+nEuN2eOnV12RsD5/y4L+uPY1ONvRZE8iHnQY+odBcwzNCCHPv3mpMfjfn++VHua+Hck1c6jlru6SPP/XhacKk494H8fc9KyqopGPfB8kn6W24dKaQ9GyPiWy0DRrXdAQzaFHzVlXKg6fTW6fv+1EZSiOG16kK7yqezvQzHEcf8oXTu0gkRm/wtoLvr6SEqznW8PWFf/bFnS61Xb1GoqsPYBc8JtJbn4GfBAdc0xpw5efe4t3cyboT7fXUhJofSTbzccEeC8sjXs6ODStIGP8X2HPIvnol/seiDO083lI6oly0DVE6Lw19NRePr8BCZQ2vJDrEhUi3n2Nh9oITmwsCJ1Zm6+FmH7lm/ncCr1cVmkYsdlaD8x7Y5UUEnaQOdR2fbXSksDHm65uv40/VF8YqqJCAoKRqh/Szg6ClrahIGYuEy0ULtBBNJTN2cxzdx1Wx/wj4sxnAmqRhqeI9/7HWIoHFV/aX4GUJ2DNkQYdQKEIzPOjvJf2W/6P79mYtm0bIzYsaQgZ+fu0L62X6W50uJLincpDPEJZqbiC3ssuVyuEiltJKGClEyGqKJSOKqrQ0QzpvSMfiKsOO5UnTFYMVfatg42ZgRkZj+f/1NfupwpRrrAAAAAElFTkSuQmCC;" vertex="1" parent="3oKLYj8sFJzThlAzcCkO-56">
          <mxGeometry width="40" height="40" as="geometry" />
        </mxCell>
        <mxCell id="3oKLYj8sFJzThlAzcCkO-55" value="Airflow Orchestration" style="text;html=1;align=center;verticalAlign=middle;whiteSpace=wrap;rounded=0;" vertex="1" parent="3oKLYj8sFJzThlAzcCkO-56">
          <mxGeometry x="32.5" y="5" width="150" height="30" as="geometry" />
        </mxCell>
        <mxCell id="3oKLYj8sFJzThlAzcCkO-58" value="" style="group" vertex="1" connectable="0" parent="1">
          <mxGeometry x="320" y="390" width="265" height="50" as="geometry" />
        </mxCell>
        <mxCell id="3oKLYj8sFJzThlAzcCkO-21" style="edgeStyle=orthogonalEdgeStyle;rounded=0;orthogonalLoop=1;jettySize=auto;html=1;exitX=0.5;exitY=1;exitDx=0;exitDy=0;" edge="1" parent="3oKLYj8sFJzThlAzcCkO-58">
          <mxGeometry relative="1" as="geometry">
            <mxPoint x="265" y="35.75" as="sourcePoint" />
            <mxPoint x="265" y="35.75" as="targetPoint" />
          </mxGeometry>
        </mxCell>
        <mxCell id="3oKLYj8sFJzThlAzcCkO-23" style="edgeStyle=orthogonalEdgeStyle;rounded=0;orthogonalLoop=1;jettySize=auto;html=1;exitX=0.5;exitY=1;exitDx=0;exitDy=0;" edge="1" parent="3oKLYj8sFJzThlAzcCkO-58">
          <mxGeometry relative="1" as="geometry">
            <mxPoint x="265" y="35.75" as="sourcePoint" />
            <mxPoint x="265" y="35.75" as="targetPoint" />
          </mxGeometry>
        </mxCell>
        <mxCell id="3oKLYj8sFJzThlAzcCkO-28" value="" style="shape=image;verticalLabelPosition=bottom;labelBackgroundColor=default;verticalAlign=top;aspect=fixed;imageAspect=0;image=data:image/png,iVBORw0KGgoAAAANSUhEUgAAAEwAAABHCAYAAACtUKHoAAAAAXNSR0IArs4c6QAAAIRlWElmTU0AKgAAAAgABQESAAMAAAABAAEAAAEaAAUAAAABAAAASgEbAAUAAAABAAAAUgEoAAMAAAABAAIAAIdpAAQAAAABAAAAWgAAAAAAAABIAAAAAQAAAEgAAAABAAOgAQADAAAAAQABAACgAgAEAAAAAQAAAEygAwAEAAAAAQAAAEcAAAAAklOb8gAAAAlwSFlzAAALEwAACxMBAJqcGAAACINJREFUeAHtmwtwk1UWx/9fXk2aJoW2abbDsqgFBRFlx3Uf7sPHOL4AFVFBHVyh4LTDUEQQnd1R1pllYNlKUQRBlCqKHQUFEWTE16C4iODA4u4yzi7r6LqWLJSSPtOkSface/uRpArka5LvSyAXmu+Ze8/9feece+65X5QoFeRL0gRMSd+Zv1EQyAPTqAh5YHlgGglovD2vYZkEJgfUKM7mgVWbhkUVLHykGYGAjETORnCagDGmg38LYcpth7F5QzuCQT5zdoVxmoBJc4/CYlGwbk0r5lYfwe6PA+L02aJtCnU0aRWJRIB7J3yLSEQ5AYnPlXnMWLisDE6nCYq4JK9LwGfWZz80LAZAITpms4KWY2FMm+jDyqXH0dmRNP9YRTm0lxKwWD8VYaYfvteFWVX/w4Z1beISK68GBY5Vl8V7aQIme8ja1tkVwasvtqK2yod/0ADBWngmDQwp+bBTK0IUga4ofnmlA3dMdmPQYMupb8+Rq2nVsMQ+K7A7TNj7STfmVPuw9hk/enpy30QzCEziY4tkU92+tYNG2Cb8+58h8muJaHPpKOPAGIb0YwpCIWD/Z90i9Ghvp3iEitGDQvNRGUcKYZL40AWYKge7fxmnAb+//yheWOXXfVBQH1AgEMaD83bjmdUHVfGS2uoKLFGiKN7a1IGayYfx0QcBCobl1cyZq/QD3d0RNDb+C2PHvoU9n/pOPMBE2U5+ZOjQZbUpaPVHsPzPLdj6ejtqHhiAIedaSVruXPpmC6xV7BZ27fKh7vG/wne4C1Yrz0q0t2EoMH6OLLSFGP3nqx7MrTmCK66xY9qMgSiwS43oT6e4XrUwrGMt3Xhg9i4cOuQXoBhWf4vhwFTB+WEXFAB/2RHA3l2HccvEItxyR9GJQUELOFWjurp6sGLF3/Hmm1+JZiQo7Vqlysjb/qOOryVt+wpMJh5No3h1bRtm3OPD5/uDQgtVZ326ptgHMtz16w/h1lvfxqY3JCwJPDVY3HbWaFg8CO6cYgb8/ij+MO8oLv+NHXdPdaNi0Kn8m/R7Bw40o77+AL744jjsdjMsFAOms2gGFg6TAPJ/OuU4aV2FhSbs29ON/XuO4PqbizB+UhGlkTh+k5qkml9TUydWrTqId975BjabmWBp7tpJZYi/oMkkTSZ64otLUWDTN+BkjWP92bapHVNva6LgN0jA6BxRC4chw4Rx27BjR5Nw6vEdTPe+JmD8VIdeYMOa9RW4a4oLZvI3kQh3JfNFmCm1Z7Eq+NOjx/BaY6vwVbW1O7Fy5UG4XfQUqUhflTl5NAETQve6hDHji/BkQzmuH+dEZ3tYmAgDzXSR4KJiIs9t8QMziV6k11edrB+agCVWosBdrOCe+4qxZLUXg4eY0UOjmx7QhBNNFEa3oxSAxZzuORSdL1pWjpo5A1DqMdFqUu88R7du6NdQSsBYTOEzyBrYAV95TSGeeLYcE+5yibkhzw+TjZ/063JqLaUMTG0+3tlOpAzrmle8GD6S46YzC1ragPUFV+BQ8MjCMjxWVwZvhVku+urjl1VRMrJNOzBVSnVEHXq+FY+v9GLWwwPQQzGTPoOCKkX6t5kJhxPkZLWixZArCjFqtB3ffE1p16wp2kf1jGlYPBPVv7mLTbhwlAwwS8vMYpIdf5+e+zwY8bshXq9DU7O6AEuUSE5pHl1Uhnur3bQArL+ZMiyXy4qlSy/H1KnDE8U7zZEOJvldCVjjOmgR5IabnBSKOLH+pVZseb0DVlI+VRu/+63UzjAkalb40Orqkbj99vPEapbWWg3QMCni/AebsbzOD0chzxbcWLHWi2HDbfTuGQe92n3L6Tre1hbCuHFDsHnzDZg0qbJfsLgNQzSMGw6Ho/jw/U58vi+Au6vc+PXVhZQJKcPunV1Y19AG37ch0jgeMFKLRYLBMEaMGIj7Z4/CRSNLUg6kDQPGWmSlzAOvTy5b3ILtW9oxeVoxfvYrB358mR1bKZWz6ZV2MTBwFlZrCYUi8HjsmD59BG688UcnQKVq8oaZZAyAIjTpy0M9eKj2KJ6ubxEZiPETXXj+tQqcO0xmWZON3zh7wb6KIW3ceB1tB4umUgWlymughqkixBx9YSGwk9Yod77fhUlT3BhzsxMLlnjo9YIgnqo7jqb/9vSmcmLfVffYqTPUSy4pxfz5l6K01C60Kl2g1HayApgqjNo5Tqs1NrRi28YOVM0sxqU/tWPxcg/27e1G/YJmAhFvGArlxiIoKSlAXd0vUFnpFgspXKdan1p/OrZZBUztEHeUzcpPi7yLKLt68egCTJ9VjMt+bkfDhgqCSS/sUYqai9VmwsyZF1GYUCm+o9aRqa2m98PSKcTs+3w44ksib0bqRsZG/4Brxzgx4U4XXG4TOtoicLpM4LVHh8OSEfP7vv7G6/b3XTf+HCkSa5yJ/rZv4XcxfNjxbicc9AIyF4bFJRPmJyru85H9wOIE5vCCnfvTS47j5QY/XWG907dkpQ87FQKhbbTIq9dqVV9ZckrD+gpvxHEemEbqeWB5YBoJaLw9r2F5YBoJaLw9r2G5AszjsSBIbzTnWjFEwzha/92CUlTNGECpYhmE8rlcKIYA42idAV1Hr0qtbvwBrrrWQcd8LvuRGQKMsaiTZRu9OT195kA88Vw5zqm0iJS0zE1kJzzDgMVwyLyWp9yEBfVlePixEhRT+iaUpb98ywJgKjo2SUUsgCx91os7f+sSv/I1apKtStV3m0XA2EyleLYChX7U4MKqdV6M/oldLMllC7isAtb3afIPVOfNL8EfyVQH/dAiUjpyNDVudMhqYCrA84ZasXiFB7UPDZQr1r35fPW6nlvDcvr962SURlGIH+EHu4EpNW6qpteO+1eh5m/lGDCZlGZE/DKLs0h/A8k5YJpVIs1f0P8RpbkDeleXB6aR+P8BcYnQ4qoGL60AAAAASUVORK5CYII=;" vertex="1" parent="3oKLYj8sFJzThlAzcCkO-58">
          <mxGeometry width="53.53" height="50" as="geometry" />
        </mxCell>
        <mxCell id="3oKLYj8sFJzThlAzcCkO-57" value="Terraform Cloud Provisioning" style="text;html=1;align=center;verticalAlign=middle;whiteSpace=wrap;rounded=0;" vertex="1" parent="3oKLYj8sFJzThlAzcCkO-58">
          <mxGeometry x="50" y="8.25" width="177.5" height="30" as="geometry" />
        </mxCell>
      </root>
    </mxGraphModel>
  </diagram>
</mxfile>
